<svg xmlns="http://www.w3.org/2000/svg" viewBox="0 0 32 24" width="640" height="480" role="img" aria-label="Monochrome pixel oak silhouette" shape-rendering="crispEdges">
  <rect width="32" height="24" fill="#F2EFE4"/>
  <rect x="13" y="0" width="1" height="1" fill="#0D100E" data-cell="silhouette-13-0"/>
  <rect x="14" y="0" width="1" height="1" fill="#0D100E" data-cell="silhouette-14-0"/>
  <rect x="15" y="0" width="1" height="1" fill="#0D100E" data-cell="silhouette-15-0"/>
  <rect x="16" y="0" width="1" height="1" fill="#0D100E" data-cell="silhouette-16-0"/>
  <rect x="17" y="0" width="1" height="1" fill="#0D100E" data-cell="silhouette-17-0"/>
  <rect x="18" y="0" width="1" height="1" fill="#0D100E" data-cell="silhouette-18-0"/>
  <rect x="10" y="1" width="1" height="1" fill="#0D100E" data-cell="silhouette-10-1"/>
  <rect x="11" y="1" width="1" height="1" fill="#0D100E" data-cell="silhouette-11-1"/>
  <rect x="12" y="1" width="1" height="1" fill="#0D100E" data-cell="silhouette-12-1"/>
  <rect x="13" y="1" width="1" height="1" fill="#0D100E" data-cell="silhouette-13-1"/>
  <rect x="14" y="1" width="1" height="1" fill="#0D100E" data-cell="silhouette-14-1"/>
  <rect x="15" y="1" width="1" height="1" fill="#0D100E" data-cell="silhouette-15-1"/>
  <rect x="16" y="1" width="1" height="1" fill="#0D100E" data-cell="silhouette-16-1"/>
  <rect x="17" y="1" width="1" height="1" fill="#0D100E" data-cell="silhouette-17-1"/>
  <rect x="18" y="1" width="1" height="1" fill="#0D100E" data-cell="silhouette-18-1"/>
  <rect x="19" y="1" width="1" height="1" fill="#0D100E" data-cell="silhouette-19-1"/>
  <rect x="20" y="1" width="1" height="1" fill="#0D100E" data-cell="silhouette-20-1"/>
  <rect x="21" y="1" width="1" height="1" fill="#0D100E" data-cell="silhouette-21-1"/>
  <rect x="7" y="2" width="1" height="1" fill="#0D100E" data-cell="silhouette-7-2"/>
  <rect x="8" y="2" width="1" height="1" fill="#0D100E" data-cell="silhouette-8-2"/>
  <rect x="9" y="2" width="1" height="1" fill="#0D100E" data-cell="silhouette-9-2"/>
  <rect x="10" y="2" width="1" height="1" fill="#0D100E" data-cell="silhouette-10-2"/>
  <rect x="11" y="2" width="1" height="1" fill="#0D100E" data-cell="silhouette-11-2"/>
  <rect x="12" y="2" width="1" height="1" fill="#0D100E" data-cell="silhouette-12-2"/>
  <rect x="13" y="2" width="1" height="1" fill="#0D100E" data-cell="silhouette-13-2"/>
  <rect x="14" y="2" width="1" height="1" fill="#0D100E" data-cell="silhouette-14-2"/>
  <rect x="15" y="2" width="1" height="1" fill="#0D100E" data-cell="silhouette-15-2"/>
  <rect x="16" y="2" width="1" height="1" fill="#0D100E" data-cell="silhouette-16-2"/>
  <rect x="17" y="2" width="1" height="1" fill="#0D100E" data-cell="silhouette-17-2"/>
  <rect x="18" y="2" width="1" height="1" fill="#0D100E" data-cell="silhouette-18-2"/>
  <rect x="19" y="2" width="1" height="1" fill="#0D100E" data-cell="silhouette-19-2"/>
  <rect x="20" y="2" width="1" height="1" fill="#0D100E" data-cell="silhouette-20-2"/>
  <rect x="21" y="2" width="1" height="1" fill="#0D100E" data-cell="silhouette-21-2"/>
  <rect x="22" y="2" width="1" height="1" fill="#0D100E" data-cell="silhouette-22-2"/>
  <rect x="23" y="2" width="1" height="1" fill="#0D100E" data-cell="silhouette-23-2"/>
  <rect x="24" y="2" width="1" height="1" fill="#0D100E" data-cell="silhouette-24-2"/>
  <rect x="4" y="3" width="1" height="1" fill="#0D100E" data-cell="silhouette-4-3"/>
  <rect x="5" y="3" width="1" height="1" fill="#0D100E" data-cell="silhouette-5-3"/>
  <rect x="6" y="3" width="1" height="1" fill="#0D100E" data-cell="silhouette-6-3"/>
  <rect x="7" y="3" width="1" height="1" fill="#0D100E" data-cell="silhouette-7-3"/>
  <rect x="8" y="3" width="1" height="1" fill="#0D100E" data-cell="silhouette-8-3"/>
  <rect x="9" y="3" width="1" height="1" fill="#0D100E" data-cell="silhouette-9-3"/>
  <rect x="10" y="3" width="1" height="1" fill="#0D100E" data-cell="silhouette-10-3"/>
  <rect x="11" y="3" width="1" height="1" fill="#0D100E" data-cell="silhouette-11-3"/>
  <rect x="12" y="3" width="1" height="1" fill="#0D100E" data-cell="silhouette-12-3"/>
  <rect x="13" y="3" width="1" height="1" fill="#0D100E" data-cell="silhouette-13-3"/>
  <rect x="14" y="3" width="1" height="1" fill="#0D100E" data-cell="silhouette-14-3"/>
  <rect x="15" y="3" width="1" height="1" fill="#0D100E" data-cell="silhouette-15-3"/>
  <rect x="16" y="3" width="1" height="1" fill="#0D100E" data-cell="silhouette-16-3"/>
  <rect x="17" y="3" width="1" height="1" fill="#0D100E" data-cell="silhouette-17-3"/>
  <rect x="18" y="3" width="1" height="1" fill="#0D100E" data-cell="silhouette-18-3"/>
  <rect x="19" y="3" width="1" height="1" fill="#0D100E" data-cell="silhouette-19-3"/>
  <rect x="20" y="3" width="1" height="1" fill="#0D100E" data-cell="silhouette-20-3"/>
  <rect x="21" y="3" width="1" height="1" fill="#0D100E" data-cell="silhouette-21-3"/>
  <rect x="22" y="3" width="1" height="1" fill="#0D100E" data-cell="silhouette-22-3"/>
  <rect x="23" y="3" width="1" height="1" fill="#0D100E" data-cell="silhouette-23-3"/>
  <rect x="24" y="3" width="1" height="1" fill="#0D100E" data-cell="silhouette-24-3"/>
  <rect x="25" y="3" width="1" height="1" fill="#0D100E" data-cell="silhouette-25-3"/>
  <rect x="26" y="3" width="1" height="1" fill="#0D100E" data-cell="silhouette-26-3"/>
  <rect x="27" y="3" width="1" height="1" fill="#0D100E" data-cell="silhouette-27-3"/>
  <rect x="3" y="4" width="1" height="1" fill="#0D100E" data-cell="silhouette-3-4"/>
  <rect x="4" y="4" width="1" height="1" fill="#0D100E" data-cell="silhouette-4-4"/>
  <rect x="5" y="4" width="1" height="1" fill="#0D100E" data-cell="silhouette-5-4"/>
  <rect x="6" y="4" width="1" height="1" fill="#0D100E" data-cell="silhouette-6-4"/>
  <rect x="7" y="4" width="1" height="1" fill="#0D100E" data-cell="silhouette-7-4"/>
  <rect x="8" y="4" width="1" height="1" fill="#0D100E" data-cell="silhouette-8-4"/>
  <rect x="9" y="4" width="1" height="1" fill="#0D100E" data-cell="silhouette-9-4"/>
  <rect x="10" y="4" width="1" height="1" fill="#0D100E" data-cell="silhouette-10-4"/>
  <rect x="11" y="4" width="1" height="1" fill="#0D100E" data-cell="silhouette-11-4"/>
  <rect x="12" y="4" width="1" height="1" fill="#0D100E" data-cell="silhouette-12-4"/>
  <rect x="13" y="4" width="1" height="1" fill="#0D100E" data-cell="silhouette-13-4"/>
  <rect x="14" y="4" width="1" height="1" fill="#0D100E" data-cell="silhouette-14-4"/>
  <rect x="15" y="4" width="1" height="1" fill="#0D100E" data-cell="silhouette-15-4"/>
  <rect x="16" y="4" width="1" height="1" fill="#0D100E" data-cell="silhouette-16-4"/>
  <rect x="17" y="4" width="1" height="1" fill="#0D100E" data-cell="silhouette-17-4"/>
  <rect x="18" y="4" width="1" height="1" fill="#0D100E" data-cell="silhouette-18-4"/>
  <rect x="19" y="4" width="1" height="1" fill="#0D100E" data-cell="silhouette-19-4"/>
  <rect x="20" y="4" width="1" height="1" fill="#0D100E" data-cell="silhouette-20-4"/>
  <rect x="21" y="4" width="1" height="1" fill="#0D100E" data-cell="silhouette-21-4"/>
  <rect x="22" y="4" width="1" height="1" fill="#0D100E" data-cell="silhouette-22-4"/>
  <rect x="23" y="4" width="1" height="1" fill="#0D100E" data-cell="silhouette-23-4"/>
  <rect x="24" y="4" width="1" height="1" fill="#0D100E" data-cell="silhouette-24-4"/>
  <rect x="25" y="4" width="1" height="1" fill="#0D100E" data-cell="silhouette-25-4"/>
  <rect x="26" y="4" width="1" height="1" fill="#0D100E" data-cell="silhouette-26-4"/>
  <rect x="27" y="4" width="1" height="1" fill="#0D100E" data-cell="silhouette-27-4"/>
  <rect x="28" y="4" width="1" height="1" fill="#0D100E" data-cell="silhouette-28-4"/>
  <rect x="1" y="5" width="1" height="1" fill="#0D100E" data-cell="silhouette-1-5"/>
  <rect x="2" y="5" width="1" height="1" fill="#0D100E" data-cell="silhouette-2-5"/>
  <rect x="3" y="5" width="1" height="1" fill="#0D100E" data-cell="silhouette-3-5"/>
  <rect x="4" y="5" width="1" height="1" fill="#0D100E" data-cell="silhouette-4-5"/>
  <rect x="5" y="5" width="1" height="1" fill="#0D100E" data-cell="silhouette-5-5"/>
  <rect x="6" y="5" width="1" height="1" fill="#0D100E" data-cell="silhouette-6-5"/>
  <rect x="7" y="5" width="1" height="1" fill="#0D100E" data-cell="silhouette-7-5"/>
  <rect x="8" y="5" width="1" height="1" fill="#0D100E" data-cell="silhouette-8-5"/>
  <rect x="9" y="5" width="1" height="1" fill="#0D100E" data-cell="silhouette-9-5"/>
  <rect x="10" y="5" width="1" height="1" fill="#0D100E" data-cell="silhouette-10-5"/>
  <rect x="11" y="5" width="1" height="1" fill="#0D100E" data-cell="silhouette-11-5"/>
  <rect x="12" y="5" width="1" height="1" fill="#0D100E" data-cell="silhouette-12-5"/>
  <rect x="13" y="5" width="1" height="1" fill="#0D100E" data-cell="silhouette-13-5"/>
  <rect x="14" y="5" width="1" height="1" fill="#0D100E" data-cell="silhouette-14-5"/>
  <rect x="15" y="5" width="1" height="1" fill="#0D100E" data-cell="silhouette-15-5"/>
  <rect x="16" y="5" width="1" height="1" fill="#0D100E" data-cell="silhouette-16-5"/>
  <rect x="17" y="5" width="1" height="1" fill="#0D100E" data-cell="silhouette-17-5"/>
  <rect x="18" y="5" width="1" height="1" fill="#0D100E" data-cell="silhouette-18-5"/>
  <rect x="19" y="5" width="1" height="1" fill="#0D100E" data-cell="silhouette-19-5"/>
  <rect x="20" y="5" width="1" height="1" fill="#0D100E" data-cell="silhouette-20-5"/>
  <rect x="21" y="5" width="1" height="1" fill="#0D100E" data-cell="silhouette-21-5"/>
  <rect x="22" y="5" width="1" height="1" fill="#0D100E" data-cell="silhouette-22-5"/>
  <rect x="23" y="5" width="1" height="1" fill="#0D100E" data-cell="silhouette-23-5"/>
  <rect x="24" y="5" width="1" height="1" fill="#0D100E" data-cell="silhouette-24-5"/>
  <rect x="25" y="5" width="1" height="1" fill="#0D100E" data-cell="silhouette-25-5"/>
  <rect x="26" y="5" width="1" height="1" fill="#0D100E" data-cell="silhouette-26-5"/>
  <rect x="27" y="5" width="1" height="1" fill="#0D100E" data-cell="silhouette-27-5"/>
  <rect x="28" y="5" width="1" height="1" fill="#0D100E" data-cell="silhouette-28-5"/>
  <rect x="29" y="5" width="1" height="1" fill="#0D100E" data-cell="silhouette-29-5"/>
  <rect x="30" y="5" width="1" height="1" fill="#0D100E" data-cell="silhouette-30-5"/>
  <rect x="0" y="6" width="1" height="1" fill="#0D100E" data-cell="silhouette-0-6"/>
  <rect x="1" y="6" width="1" height="1" fill="#0D100E" data-cell="silhouette-1-6"/>
  <rect x="2" y="6" width="1" height="1" fill="#0D100E" data-cell="silhouette-2-6"/>
  <rect x="3" y="6" width="1" height="1" fill="#0D100E" data-cell="silhouette-3-6"/>
  <rect x="4" y="6" width="1" height="1" fill="#0D100E" data-cell="silhouette-4-6"/>
  <rect x="5" y="6" width="1" height="1" fill="#0D100E" data-cell="silhouette-5-6"/>
  <rect x="6" y="6" width="1" height="1" fill="#0D100E" data-cell="silhouette-6-6"/>
  <rect x="7" y="6" width="1" height="1" fill="#0D100E" data-cell="silhouette-7-6"/>
  <rect x="8" y="6" width="1" height="1" fill="#0D100E" data-cell="silhouette-8-6"/>
  <rect x="9" y="6" width="1" height="1" fill="#0D100E" data-cell="silhouette-9-6"/>
  <rect x="10" y="6" width="1" height="1" fill="#0D100E" data-cell="silhouette-10-6"/>
  <rect x="11" y="6" width="1" height="1" fill="#0D100E" data-cell="silhouette-11-6"/>
  <rect x="12" y="6" width="1" height="1" fill="#0D100E" data-cell="silhouette-12-6"/>
  <rect x="13" y="6" width="1" height="1" fill="#0D100E" data-cell="silhouette-13-6"/>
  <rect x="14" y="6" width="1" height="1" fill="#0D100E" data-cell="silhouette-14-6"/>
  <rect x="15" y="6" width="1" height="1" fill="#0D100E" data-cell="silhouette-15-6"/>
  <rect x="16" y="6" width="1" height="1" fill="#0D100E" data-cell="silhouette-16-6"/>
  <rect x="17" y="6" width="1" height="1" fill="#0D100E" data-cell="silhouette-17-6"/>
  <rect x="18" y="6" width="1" height="1" fill="#0D100E" data-cell="silhouette-18-6"/>
  <rect x="19" y="6" width="1" height="1" fill="#0D100E" data-cell="silhouette-19-6"/>
  <rect x="20" y="6" width="1" height="1" fill="#0D100E" data-cell="silhouette-20-6"/>
  <rect x="21" y="6" width="1" height="1" fill="#0D100E" data-cell="silhouette-21-6"/>
  <rect x="22" y="6" width="1" height="1" fill="#0D100E" data-cell="silhouette-22-6"/>
  <rect x="23" y="6" width="1" height="1" fill="#0D100E" data-cell="silhouette-23-6"/>
  <rect x="24" y="6" width="1" height="1" fill="#0D100E" data-cell="silhouette-24-6"/>
  <rect x="25" y="6" width="1" height="1" fill="#0D100E" data-cell="silhouette-25-6"/>
  <rect x="26" y="6" width="1" height="1" fill="#0D100E" data-cell="silhouette-26-6"/>
  <rect x="27" y="6" width="1" height="1" fill="#0D100E" data-cell="silhouette-27-6"/>
  <rect x="28" y="6" width="1" height="1" fill="#0D100E" data-cell="silhouette-28-6"/>
  <rect x="29" y="6" width="1" height="1" fill="#0D100E" data-cell="silhouette-29-6"/>
  <rect x="30" y="6" width="1" height="1" fill="#0D100E" data-cell="silhouette-30-6"/>
  <rect x="31" y="6" width="1" height="1" fill="#0D100E" data-cell="silhouette-31-6"/>
  <rect x="0" y="7" width="1" height="1" fill="#0D100E" data-cell="silhouette-0-7"/>
  <rect x="1" y="7" width="1" height="1" fill="#0D100E" data-cell="silhouette-1-7"/>
  <rect x="2" y="7" width="1" height="1" fill="#0D100E" data-cell="silhouette-2-7"/>
  <rect x="3" y="7" width="1" height="1" fill="#0D100E" data-cell="silhouette-3-7"/>
  <rect x="4" y="7" width="1" height="1" fill="#0D100E" data-cell="silhouette-4-7"/>
  <rect x="5" y="7" width="1" height="1" fill="#0D100E" data-cell="silhouette-5-7"/>
  <rect x="6" y="7" width="1" height="1" fill="#0D100E" data-cell="silhouette-6-7"/>
  <rect x="7" y="7" width="1" height="1" fill="#0D100E" data-cell="silhouette-7-7"/>
  <rect x="8" y="7" width="1" height="1" fill="#0D100E" data-cell="silhouette-8-7"/>
  <rect x="9" y="7" width="1" height="1" fill="#0D100E" data-cell="silhouette-9-7"/>
  <rect x="10" y="7" width="1" height="1" fill="#0D100E" data-cell="silhouette-10-7"/>
  <rect x="11" y="7" width="1" height="1" fill="#0D100E" data-cell="silhouette-11-7"/>
  <rect x="12" y="7" width="1" height="1" fill="#0D100E" data-cell="silhouette-12-7"/>
  <rect x="13" y="7" width="1" height="1" fill="#0D100E" data-cell="silhouette-13-7"/>
  <rect x="14" y="7" width="1" height="1" fill="#0D100E" data-cell="silhouette-14-7"/>
  <rect x="15" y="7" width="1" height="1" fill="#0D100E" data-cell="silhouette-15-7"/>
  <rect x="16" y="7" width="1" height="1" fill="#0D100E" data-cell="silhouette-16-7"/>
  <rect x="17" y="7" width="1" height="1" fill="#0D100E" data-cell="silhouette-17-7"/>
  <rect x="18" y="7" width="1" height="1" fill="#0D100E" data-cell="silhouette-18-7"/>
  <rect x="19" y="7" width="1" height="1" fill="#0D100E" data-cell="silhouette-19-7"/>
  <rect x="20" y="7" width="1" height="1" fill="#0D100E" data-cell="silhouette-20-7"/>
  <rect x="21" y="7" width="1" height="1" fill="#0D100E" data-cell="silhouette-21-7"/>
  <rect x="22" y="7" width="1" height="1" fill="#0D100E" data-cell="silhouette-22-7"/>
  <rect x="23" y="7" width="1" height="1" fill="#0D100E" data-cell="silhouette-23-7"/>
  <rect x="24" y="7" width="1" height="1" fill="#0D100E" data-cell="silhouette-24-7"/>
  <rect x="25" y="7" width="1" height="1" fill="#0D100E" data-cell="silhouette-25-7"/>
  <rect x="26" y="7" width="1" height="1" fill="#0D100E" data-cell="silhouette-26-7"/>
  <rect x="27" y="7" width="1" height="1" fill="#0D100E" data-cell="silhouette-27-7"/>
  <rect x="28" y="7" width="1" height="1" fill="#0D100E" data-cell="silhouette-28-7"/>
  <rect x="29" y="7" width="1" height="1" fill="#0D100E" data-cell="silhouette-29-7"/>
  <rect x="30" y="7" width="1" height="1" fill="#0D100E" data-cell="silhouette-30-7"/>
  <rect x="31" y="7" width="1" height="1" fill="#0D100E" data-cell="silhouette-31-7"/>
  <rect x="1" y="8" width="1" height="1" fill="#0D100E" data-cell="silhouette-1-8"/>
  <rect x="2" y="8" width="1" height="1" fill="#0D100E" data-cell="silhouette-2-8"/>
  <rect x="3" y="8" width="1" height="1" fill="#0D100E" data-cell="silhouette-3-8"/>
  <rect x="4" y="8" width="1" height="1" fill="#0D100E" data-cell="silhouette-4-8"/>
  <rect x="5" y="8" width="1" height="1" fill="#0D100E" data-cell="silhouette-5-8"/>
  <rect x="6" y="8" width="1" height="1" fill="#0D100E" data-cell="silhouette-6-8"/>
  <rect x="7" y="8" width="1" height="1" fill="#0D100E" data-cell="silhouette-7-8"/>
  <rect x="8" y="8" width="1" height="1" fill="#0D100E" data-cell="silhouette-8-8"/>
  <rect x="9" y="8" width="1" height="1" fill="#0D100E" data-cell="silhouette-9-8"/>
  <rect x="10" y="8" width="1" height="1" fill="#0D100E" data-cell="silhouette-10-8"/>
  <rect x="11" y="8" width="1" height="1" fill="#0D100E" data-cell="silhouette-11-8"/>
  <rect x="12" y="8" width="1" height="1" fill="#0D100E" data-cell="silhouette-12-8"/>
  <rect x="19" y="8" width="1" height="1" fill="#0D100E" data-cell="silhouette-19-8"/>
  <rect x="20" y="8" width="1" height="1" fill="#0D100E" data-cell="silhouette-20-8"/>
  <rect x="21" y="8" width="1" height="1" fill="#0D100E" data-cell="silhouette-21-8"/>
  <rect x="22" y="8" width="1" height="1" fill="#0D100E" data-cell="silhouette-22-8"/>
  <rect x="23" y="8" width="1" height="1" fill="#0D100E" data-cell="silhouette-23-8"/>
  <rect x="24" y="8" width="1" height="1" fill="#0D100E" data-cell="silhouette-24-8"/>
  <rect x="25" y="8" width="1" height="1" fill="#0D100E" data-cell="silhouette-25-8"/>
  <rect x="26" y="8" width="1" height="1" fill="#0D100E" data-cell="silhouette-26-8"/>
  <rect x="27" y="8" width="1" height="1" fill="#0D100E" data-cell="silhouette-27-8"/>
  <rect x="28" y="8" width="1" height="1" fill="#0D100E" data-cell="silhouette-28-8"/>
  <rect x="29" y="8" width="1" height="1" fill="#0D100E" data-cell="silhouette-29-8"/>
  <rect x="30" y="8" width="1" height="1" fill="#0D100E" data-cell="silhouette-30-8"/>
  <rect x="2" y="9" width="1" height="1" fill="#0D100E" data-cell="silhouette-2-9"/>
  <rect x="3" y="9" width="1" height="1" fill="#0D100E" data-cell="silhouette-3-9"/>
  <rect x="4" y="9" width="1" height="1" fill="#0D100E" data-cell="silhouette-4-9"/>
  <rect x="5" y="9" width="1" height="1" fill="#0D100E" data-cell="silhouette-5-9"/>
  <rect x="6" y="9" width="1" height="1" fill="#0D100E" data-cell="silhouette-6-9"/>
  <rect x="7" y="9" width="1" height="1" fill="#0D100E" data-cell="silhouette-7-9"/>
  <rect x="8" y="9" width="1" height="1" fill="#0D100E" data-cell="silhouette-8-9"/>
  <rect x="9" y="9" width="1" height="1" fill="#0D100E" data-cell="silhouette-9-9"/>
  <rect x="10" y="9" width="1" height="1" fill="#0D100E" data-cell="silhouette-10-9"/>
  <rect x="11" y="9" width="1" height="1" fill="#0D100E" data-cell="silhouette-11-9"/>
  <rect x="12" y="9" width="1" height="1" fill="#0D100E" data-cell="silhouette-12-9"/>
  <rect x="13" y="9" width="1" height="1" fill="#0D100E" data-cell="silhouette-13-9"/>
  <rect x="18" y="9" width="1" height="1" fill="#0D100E" data-cell="silhouette-18-9"/>
  <rect x="19" y="9" width="1" height="1" fill="#0D100E" data-cell="silhouette-19-9"/>
  <rect x="20" y="9" width="1" height="1" fill="#0D100E" data-cell="silhouette-20-9"/>
  <rect x="21" y="9" width="1" height="1" fill="#0D100E" data-cell="silhouette-21-9"/>
  <rect x="22" y="9" width="1" height="1" fill="#0D100E" data-cell="silhouette-22-9"/>
  <rect x="23" y="9" width="1" height="1" fill="#0D100E" data-cell="silhouette-23-9"/>
  <rect x="24" y="9" width="1" height="1" fill="#0D100E" data-cell="silhouette-24-9"/>
  <rect x="25" y="9" width="1" height="1" fill="#0D100E" data-cell="silhouette-25-9"/>
  <rect x="26" y="9" width="1" height="1" fill="#0D100E" data-cell="silhouette-26-9"/>
  <rect x="27" y="9" width="1" height="1" fill="#0D100E" data-cell="silhouette-27-9"/>
  <rect x="28" y="9" width="1" height="1" fill="#0D100E" data-cell="silhouette-28-9"/>
  <rect x="29" y="9" width="1" height="1" fill="#0D100E" data-cell="silhouette-29-9"/>
  <rect x="3" y="10" width="1" height="1" fill="#0D100E" data-cell="silhouette-3-10"/>
  <rect x="4" y="10" width="1" height="1" fill="#0D100E" data-cell="silhouette-4-10"/>
  <rect x="5" y="10" width="1" height="1" fill="#0D100E" data-cell="silhouette-5-10"/>
  <rect x="6" y="10" width="1" height="1" fill="#0D100E" data-cell="silhouette-6-10"/>
  <rect x="7" y="10" width="1" height="1" fill="#0D100E" data-cell="silhouette-7-10"/>
  <rect x="8" y="10" width="1" height="1" fill="#0D100E" data-cell="silhouette-8-10"/>
  <rect x="9" y="10" width="1" height="1" fill="#0D100E" data-cell="silhouette-9-10"/>
  <rect x="10" y="10" width="1" height="1" fill="#0D100E" data-cell="silhouette-10-10"/>
  <rect x="11" y="10" width="1" height="1" fill="#0D100E" data-cell="silhouette-11-10"/>
  <rect x="12" y="10" width="1" height="1" fill="#0D100E" data-cell="silhouette-12-10"/>
  <rect x="13" y="10" width="1" height="1" fill="#0D100E" data-cell="silhouette-13-10"/>
  <rect x="18" y="10" width="1" height="1" fill="#0D100E" data-cell="silhouette-18-10"/>
  <rect x="19" y="10" width="1" height="1" fill="#0D100E" data-cell="silhouette-19-10"/>
  <rect x="20" y="10" width="1" height="1" fill="#0D100E" data-cell="silhouette-20-10"/>
  <rect x="21" y="10" width="1" height="1" fill="#0D100E" data-cell="silhouette-21-10"/>
  <rect x="22" y="10" width="1" height="1" fill="#0D100E" data-cell="silhouette-22-10"/>
  <rect x="23" y="10" width="1" height="1" fill="#0D100E" data-cell="silhouette-23-10"/>
  <rect x="24" y="10" width="1" height="1" fill="#0D100E" data-cell="silhouette-24-10"/>
  <rect x="25" y="10" width="1" height="1" fill="#0D100E" data-cell="silhouette-25-10"/>
  <rect x="26" y="10" width="1" height="1" fill="#0D100E" data-cell="silhouette-26-10"/>
  <rect x="27" y="10" width="1" height="1" fill="#0D100E" data-cell="silhouette-27-10"/>
  <rect x="28" y="10" width="1" height="1" fill="#0D100E" data-cell="silhouette-28-10"/>
  <rect x="4" y="11" width="1" height="1" fill="#0D100E" data-cell="silhouette-4-11"/>
  <rect x="5" y="11" width="1" height="1" fill="#0D100E" data-cell="silhouette-5-11"/>
  <rect x="6" y="11" width="1" height="1" fill="#0D100E" data-cell="silhouette-6-11"/>
  <rect x="7" y="11" width="1" height="1" fill="#0D100E" data-cell="silhouette-7-11"/>
  <rect x="8" y="11" width="1" height="1" fill="#0D100E" data-cell="silhouette-8-11"/>
  <rect x="9" y="11" width="1" height="1" fill="#0D100E" data-cell="silhouette-9-11"/>
  <rect x="10" y="11" width="1" height="1" fill="#0D100E" data-cell="silhouette-10-11"/>
  <rect x="11" y="11" width="1" height="1" fill="#0D100E" data-cell="silhouette-11-11"/>
  <rect x="12" y="11" width="1" height="1" fill="#0D100E" data-cell="silhouette-12-11"/>
  <rect x="13" y="11" width="1" height="1" fill="#0D100E" data-cell="silhouette-13-11"/>
  <rect x="18" y="11" width="1" height="1" fill="#0D100E" data-cell="silhouette-18-11"/>
  <rect x="19" y="11" width="1" height="1" fill="#0D100E" data-cell="silhouette-19-11"/>
  <rect x="20" y="11" width="1" height="1" fill="#0D100E" data-cell="silhouette-20-11"/>
  <rect x="21" y="11" width="1" height="1" fill="#0D100E" data-cell="silhouette-21-11"/>
  <rect x="22" y="11" width="1" height="1" fill="#0D100E" data-cell="silhouette-22-11"/>
  <rect x="23" y="11" width="1" height="1" fill="#0D100E" data-cell="silhouette-23-11"/>
  <rect x="24" y="11" width="1" height="1" fill="#0D100E" data-cell="silhouette-24-11"/>
  <rect x="25" y="11" width="1" height="1" fill="#0D100E" data-cell="silhouette-25-11"/>
  <rect x="26" y="11" width="1" height="1" fill="#0D100E" data-cell="silhouette-26-11"/>
  <rect x="27" y="11" width="1" height="1" fill="#0D100E" data-cell="silhouette-27-11"/>
  <rect x="5" y="12" width="1" height="1" fill="#0D100E" data-cell="silhouette-5-12"/>
  <rect x="6" y="12" width="1" height="1" fill="#0D100E" data-cell="silhouette-6-12"/>
  <rect x="7" y="12" width="1" height="1" fill="#0D100E" data-cell="silhouette-7-12"/>
  <rect x="8" y="12" width="1" height="1" fill="#0D100E" data-cell="silhouette-8-12"/>
  <rect x="9" y="12" width="1" height="1" fill="#0D100E" data-cell="silhouette-9-12"/>
  <rect x="10" y="12" width="1" height="1" fill="#0D100E" data-cell="silhouette-10-12"/>
  <rect x="11" y="12" width="1" height="1" fill="#0D100E" data-cell="silhouette-11-12"/>
  <rect x="12" y="12" width="1" height="1" fill="#0D100E" data-cell="silhouette-12-12"/>
  <rect x="13" y="12" width="1" height="1" fill="#0D100E" data-cell="silhouette-13-12"/>
  <rect x="18" y="12" width="1" height="1" fill="#0D100E" data-cell="silhouette-18-12"/>
  <rect x="19" y="12" width="1" height="1" fill="#0D100E" data-cell="silhouette-19-12"/>
  <rect x="20" y="12" width="1" height="1" fill="#0D100E" data-cell="silhouette-20-12"/>
  <rect x="21" y="12" width="1" height="1" fill="#0D100E" data-cell="silhouette-21-12"/>
  <rect x="22" y="12" width="1" height="1" fill="#0D100E" data-cell="silhouette-22-12"/>
  <rect x="23" y="12" width="1" height="1" fill="#0D100E" data-cell="silhouette-23-12"/>
  <rect x="24" y="12" width="1" height="1" fill="#0D100E" data-cell="silhouette-24-12"/>
  <rect x="25" y="12" width="1" height="1" fill="#0D100E" data-cell="silhouette-25-12"/>
  <rect x="26" y="12" width="1" height="1" fill="#0D100E" data-cell="silhouette-26-12"/>
  <rect x="6" y="13" width="1" height="1" fill="#0D100E" data-cell="silhouette-6-13"/>
  <rect x="7" y="13" width="1" height="1" fill="#0D100E" data-cell="silhouette-7-13"/>
  <rect x="8" y="13" width="1" height="1" fill="#0D100E" data-cell="silhouette-8-13"/>
  <rect x="9" y="13" width="1" height="1" fill="#0D100E" data-cell="silhouette-9-13"/>
  <rect x="10" y="13" width="1" height="1" fill="#0D100E" data-cell="silhouette-10-13"/>
  <rect x="11" y="13" width="1" height="1" fill="#0D100E" data-cell="silhouette-11-13"/>
  <rect x="12" y="13" width="1" height="1" fill="#0D100E" data-cell="silhouette-12-13"/>
  <rect x="13" y="13" width="1" height="1" fill="#0D100E" data-cell="silhouette-13-13"/>
  <rect x="18" y="13" width="1" height="1" fill="#0D100E" data-cell="silhouette-18-13"/>
  <rect x="19" y="13" width="1" height="1" fill="#0D100E" data-cell="silhouette-19-13"/>
  <rect x="20" y="13" width="1" height="1" fill="#0D100E" data-cell="silhouette-20-13"/>
  <rect x="21" y="13" width="1" height="1" fill="#0D100E" data-cell="silhouette-21-13"/>
  <rect x="22" y="13" width="1" height="1" fill="#0D100E" data-cell="silhouette-22-13"/>
  <rect x="23" y="13" width="1" height="1" fill="#0D100E" data-cell="silhouette-23-13"/>
  <rect x="24" y="13" width="1" height="1" fill="#0D100E" data-cell="silhouette-24-13"/>
  <rect x="25" y="13" width="1" height="1" fill="#0D100E" data-cell="silhouette-25-13"/>
  <rect x="7" y="14" width="1" height="1" fill="#0D100E" data-cell="silhouette-7-14"/>
  <rect x="8" y="14" width="1" height="1" fill="#0D100E" data-cell="silhouette-8-14"/>
  <rect x="9" y="14" width="1" height="1" fill="#0D100E" data-cell="silhouette-9-14"/>
  <rect x="10" y="14" width="1" height="1" fill="#0D100E" data-cell="silhouette-10-14"/>
  <rect x="11" y="14" width="1" height="1" fill="#0D100E" data-cell="silhouette-11-14"/>
  <rect x="12" y="14" width="1" height="1" fill="#0D100E" data-cell="silhouette-12-14"/>
  <rect x="13" y="14" width="1" height="1" fill="#0D100E" data-cell="silhouette-13-14"/>
  <rect x="14" y="14" width="1" height="1" fill="#0D100E" data-cell="silhouette-14-14"/>
  <rect x="15" y="14" width="1" height="1" fill="#0D100E" data-cell="silhouette-15-14"/>
  <rect x="16" y="14" width="1" height="1" fill="#0D100E" data-cell="silhouette-16-14"/>
  <rect x="17" y="14" width="1" height="1" fill="#0D100E" data-cell="silhouette-17-14"/>
  <rect x="18" y="14" width="1" height="1" fill="#0D100E" data-cell="silhouette-18-14"/>
  <rect x="19" y="14" width="1" height="1" fill="#0D100E" data-cell="silhouette-19-14"/>
  <rect x="20" y="14" width="1" height="1" fill="#0D100E" data-cell="silhouette-20-14"/>
  <rect x="21" y="14" width="1" height="1" fill="#0D100E" data-cell="silhouette-21-14"/>
  <rect x="22" y="14" width="1" height="1" fill="#0D100E" data-cell="silhouette-22-14"/>
  <rect x="23" y="14" width="1" height="1" fill="#0D100E" data-cell="silhouette-23-14"/>
  <rect x="24" y="14" width="1" height="1" fill="#0D100E" data-cell="silhouette-24-14"/>
  <rect x="8" y="15" width="1" height="1" fill="#0D100E" data-cell="silhouette-8-15"/>
  <rect x="9" y="15" width="1" height="1" fill="#0D100E" data-cell="silhouette-9-15"/>
  <rect x="10" y="15" width="1" height="1" fill="#0D100E" data-cell="silhouette-10-15"/>
  <rect x="11" y="15" width="1" height="1" fill="#0D100E" data-cell="silhouette-11-15"/>
  <rect x="12" y="15" width="1" height="1" fill="#0D100E" data-cell="silhouette-12-15"/>
  <rect x="13" y="15" width="1" height="1" fill="#0D100E" data-cell="silhouette-13-15"/>
  <rect x="14" y="15" width="1" height="1" fill="#0D100E" data-cell="silhouette-14-15"/>
  <rect x="15" y="15" width="1" height="1" fill="#0D100E" data-cell="silhouette-15-15"/>
  <rect x="16" y="15" width="1" height="1" fill="#0D100E" data-cell="silhouette-16-15"/>
  <rect x="17" y="15" width="1" height="1" fill="#0D100E" data-cell="silhouette-17-15"/>
  <rect x="18" y="15" width="1" height="1" fill="#0D100E" data-cell="silhouette-18-15"/>
  <rect x="19" y="15" width="1" height="1" fill="#0D100E" data-cell="silhouette-19-15"/>
  <rect x="20" y="15" width="1" height="1" fill="#0D100E" data-cell="silhouette-20-15"/>
  <rect x="21" y="15" width="1" height="1" fill="#0D100E" data-cell="silhouette-21-15"/>
  <rect x="22" y="15" width="1" height="1" fill="#0D100E" data-cell="silhouette-22-15"/>
  <rect x="23" y="15" width="1" height="1" fill="#0D100E" data-cell="silhouette-23-15"/>
  <rect x="9" y="16" width="1" height="1" fill="#0D100E" data-cell="silhouette-9-16"/>
  <rect x="10" y="16" width="1" height="1" fill="#0D100E" data-cell="silhouette-10-16"/>
  <rect x="11" y="16" width="1" height="1" fill="#0D100E" data-cell="silhouette-11-16"/>
  <rect x="12" y="16" width="1" height="1" fill="#0D100E" data-cell="silhouette-12-16"/>
  <rect x="13" y="16" width="1" height="1" fill="#0D100E" data-cell="silhouette-13-16"/>
  <rect x="14" y="16" width="1" height="1" fill="#0D100E" data-cell="silhouette-14-16"/>
  <rect x="15" y="16" width="1" height="1" fill="#0D100E" data-cell="silhouette-15-16"/>
  <rect x="16" y="16" width="1" height="1" fill="#0D100E" data-cell="silhouette-16-16"/>
  <rect x="17" y="16" width="1" height="1" fill="#0D100E" data-cell="silhouette-17-16"/>
  <rect x="18" y="16" width="1" height="1" fill="#0D100E" data-cell="silhouette-18-16"/>
  <rect x="19" y="16" width="1" height="1" fill="#0D100E" data-cell="silhouette-19-16"/>
  <rect x="20" y="16" width="1" height="1" fill="#0D100E" data-cell="silhouette-20-16"/>
  <rect x="21" y="16" width="1" height="1" fill="#0D100E" data-cell="silhouette-21-16"/>
  <rect x="22" y="16" width="1" height="1" fill="#0D100E" data-cell="silhouette-22-16"/>
  <rect x="10" y="17" width="1" height="1" fill="#0D100E" data-cell="silhouette-10-17"/>
  <rect x="11" y="17" width="1" height="1" fill="#0D100E" data-cell="silhouette-11-17"/>
  <rect x="12" y="17" width="1" height="1" fill="#0D100E" data-cell="silhouette-12-17"/>
  <rect x="13" y="17" width="1" height="1" fill="#0D100E" data-cell="silhouette-13-17"/>
  <rect x="14" y="17" width="1" height="1" fill="#0D100E" data-cell="silhouette-14-17"/>
  <rect x="15" y="17" width="1" height="1" fill="#0D100E" data-cell="silhouette-15-17"/>
  <rect x="16" y="17" width="1" height="1" fill="#0D100E" data-cell="silhouette-16-17"/>
  <rect x="17" y="17" width="1" height="1" fill="#0D100E" data-cell="silhouette-17-17"/>
  <rect x="18" y="17" width="1" height="1" fill="#0D100E" data-cell="silhouette-18-17"/>
  <rect x="19" y="17" width="1" height="1" fill="#0D100E" data-cell="silhouette-19-17"/>
  <rect x="20" y="17" width="1" height="1" fill="#0D100E" data-cell="silhouette-20-17"/>
  <rect x="21" y="17" width="1" height="1" fill="#0D100E" data-cell="silhouette-21-17"/>
  <rect x="12" y="18" width="1" height="1" fill="#0D100E" data-cell="silhouette-12-18"/>
  <rect x="13" y="18" width="1" height="1" fill="#0D100E" data-cell="silhouette-13-18"/>
  <rect x="14" y="18" width="1" height="1" fill="#0D100E" data-cell="silhouette-14-18"/>
  <rect x="15" y="18" width="1" height="1" fill="#0D100E" data-cell="silhouette-15-18"/>
  <rect x="16" y="18" width="1" height="1" fill="#0D100E" data-cell="silhouette-16-18"/>
  <rect x="17" y="18" width="1" height="1" fill="#0D100E" data-cell="silhouette-17-18"/>
  <rect x="18" y="18" width="1" height="1" fill="#0D100E" data-cell="silhouette-18-18"/>
  <rect x="19" y="18" width="1" height="1" fill="#0D100E" data-cell="silhouette-19-18"/>
  <rect x="12" y="19" width="1" height="1" fill="#0D100E" data-cell="silhouette-12-19"/>
  <rect x="13" y="19" width="1" height="1" fill="#0D100E" data-cell="silhouette-13-19"/>
  <rect x="14" y="19" width="1" height="1" fill="#0D100E" data-cell="silhouette-14-19"/>
  <rect x="15" y="19" width="1" height="1" fill="#0D100E" data-cell="silhouette-15-19"/>
  <rect x="16" y="19" width="1" height="1" fill="#0D100E" data-cell="silhouette-16-19"/>
  <rect x="17" y="19" width="1" height="1" fill="#0D100E" data-cell="silhouette-17-19"/>
  <rect x="18" y="19" width="1" height="1" fill="#0D100E" data-cell="silhouette-18-19"/>
  <rect x="19" y="19" width="1" height="1" fill="#0D100E" data-cell="silhouette-19-19"/>
  <rect x="11" y="20" width="1" height="1" fill="#0D100E" data-cell="silhouette-11-20"/>
  <rect x="12" y="20" width="1" height="1" fill="#0D100E" data-cell="silhouette-12-20"/>
  <rect x="13" y="20" width="1" height="1" fill="#0D100E" data-cell="silhouette-13-20"/>
  <rect x="14" y="20" width="1" height="1" fill="#0D100E" data-cell="silhouette-14-20"/>
  <rect x="15" y="20" width="1" height="1" fill="#0D100E" data-cell="silhouette-15-20"/>
  <rect x="16" y="20" width="1" height="1" fill="#0D100E" data-cell="silhouette-16-20"/>
  <rect x="17" y="20" width="1" height="1" fill="#0D100E" data-cell="silhouette-17-20"/>
  <rect x="18" y="20" width="1" height="1" fill="#0D100E" data-cell="silhouette-18-20"/>
  <rect x="19" y="20" width="1" height="1" fill="#0D100E" data-cell="silhouette-19-20"/>
  <rect x="20" y="20" width="1" height="1" fill="#0D100E" data-cell="silhouette-20-20"/>
  <rect x="9" y="21" width="1" height="1" fill="#0D100E" data-cell="silhouette-9-21"/>
  <rect x="10" y="21" width="1" height="1" fill="#0D100E" data-cell="silhouette-10-21"/>
  <rect x="11" y="21" width="1" height="1" fill="#0D100E" data-cell="silhouette-11-21"/>
  <rect x="12" y="21" width="1" height="1" fill="#0D100E" data-cell="silhouette-12-21"/>
  <rect x="13" y="21" width="1" height="1" fill="#0D100E" data-cell="silhouette-13-21"/>
  <rect x="14" y="21" width="1" height="1" fill="#0D100E" data-cell="silhouette-14-21"/>
  <rect x="15" y="21" width="1" height="1" fill="#0D100E" data-cell="silhouette-15-21"/>
  <rect x="16" y="21" width="1" height="1" fill="#0D100E" data-cell="silhouette-16-21"/>
  <rect x="17" y="21" width="1" height="1" fill="#0D100E" data-cell="silhouette-17-21"/>
  <rect x="18" y="21" width="1" height="1" fill="#0D100E" data-cell="silhouette-18-21"/>
  <rect x="19" y="21" width="1" height="1" fill="#0D100E" data-cell="silhouette-19-21"/>
  <rect x="20" y="21" width="1" height="1" fill="#0D100E" data-cell="silhouette-20-21"/>
  <rect x="21" y="21" width="1" height="1" fill="#0D100E" data-cell="silhouette-21-21"/>
  <rect x="22" y="21" width="1" height="1" fill="#0D100E" data-cell="silhouette-22-21"/>
  <rect x="6" y="22" width="1" height="1" fill="#0D100E" data-cell="silhouette-6-22"/>
  <rect x="7" y="22" width="1" height="1" fill="#0D100E" data-cell="silhouette-7-22"/>
  <rect x="8" y="22" width="1" height="1" fill="#0D100E" data-cell="silhouette-8-22"/>
  <rect x="9" y="22" width="1" height="1" fill="#0D100E" data-cell="silhouette-9-22"/>
  <rect x="10" y="22" width="1" height="1" fill="#0D100E" data-cell="silhouette-10-22"/>
  <rect x="11" y="22" width="1" height="1" fill="#0D100E" data-cell="silhouette-11-22"/>
  <rect x="12" y="22" width="1" height="1" fill="#0D100E" data-cell="silhouette-12-22"/>
  <rect x="13" y="22" width="1" height="1" fill="#0D100E" data-cell="silhouette-13-22"/>
  <rect x="15" y="22" width="1" height="1" fill="#0D100E" data-cell="silhouette-15-22"/>
  <rect x="16" y="22" width="1" height="1" fill="#0D100E" data-cell="silhouette-16-22"/>
  <rect x="18" y="22" width="1" height="1" fill="#0D100E" data-cell="silhouette-18-22"/>
  <rect x="19" y="22" width="1" height="1" fill="#0D100E" data-cell="silhouette-19-22"/>
  <rect x="20" y="22" width="1" height="1" fill="#0D100E" data-cell="silhouette-20-22"/>
  <rect x="21" y="22" width="1" height="1" fill="#0D100E" data-cell="silhouette-21-22"/>
  <rect x="22" y="22" width="1" height="1" fill="#0D100E" data-cell="silhouette-22-22"/>
  <rect x="23" y="22" width="1" height="1" fill="#0D100E" data-cell="silhouette-23-22"/>
  <rect x="24" y="22" width="1" height="1" fill="#0D100E" data-cell="silhouette-24-22"/>
  <rect x="25" y="22" width="1" height="1" fill="#0D100E" data-cell="silhouette-25-22"/>
  <rect x="3" y="23" width="1" height="1" fill="#0D100E" data-cell="silhouette-3-23"/>
  <rect x="4" y="23" width="1" height="1" fill="#0D100E" data-cell="silhouette-4-23"/>
  <rect x="5" y="23" width="1" height="1" fill="#0D100E" data-cell="silhouette-5-23"/>
  <rect x="6" y="23" width="1" height="1" fill="#0D100E" data-cell="silhouette-6-23"/>
  <rect x="7" y="23" width="1" height="1" fill="#0D100E" data-cell="silhouette-7-23"/>
  <rect x="8" y="23" width="1" height="1" fill="#0D100E" data-cell="silhouette-8-23"/>
  <rect x="9" y="23" width="1" height="1" fill="#0D100E" data-cell="silhouette-9-23"/>
  <rect x="10" y="23" width="1" height="1" fill="#0D100E" data-cell="silhouette-10-23"/>
  <rect x="15" y="23" width="1" height="1" fill="#0D100E" data-cell="silhouette-15-23"/>
  <rect x="16" y="23" width="1" height="1" fill="#0D100E" data-cell="silhouette-16-23"/>
  <rect x="21" y="23" width="1" height="1" fill="#0D100E" data-cell="silhouette-21-23"/>
  <rect x="22" y="23" width="1" height="1" fill="#0D100E" data-cell="silhouette-22-23"/>
  <rect x="23" y="23" width="1" height="1" fill="#0D100E" data-cell="silhouette-23-23"/>
  <rect x="24" y="23" width="1" height="1" fill="#0D100E" data-cell="silhouette-24-23"/>
  <rect x="25" y="23" width="1" height="1" fill="#0D100E" data-cell="silhouette-25-23"/>
  <rect x="26" y="23" width="1" height="1" fill="#0D100E" data-cell="silhouette-26-23"/>
  <rect x="27" y="23" width="1" height="1" fill="#0D100E" data-cell="silhouette-27-23"/>
  <rect x="28" y="23" width="1" height="1" fill="#0D100E" data-cell="silhouette-28-23"/>
</svg>
