<svg xmlns="http://www.w3.org/2000/svg" width="1200" height="430" viewBox="0 0 1200 430" role="img" aria-labelledby="title desc"><title id="title">Cooper Oak operating loop</title><desc id="desc">A linear public workflow and an evidence ledger for selected repositories.</desc><style>.sans{font-family:system-ui,-apple-system,"Segoe UI","Helvetica Neue",Arial,sans-serif}.mono{font-family:ui-monospace,"SFMono-Regular",Menlo,Consolas,monospace}.headline{font-weight:650;letter-spacing:-1.4px}.strong{font-weight:650}.meta{letter-spacing:1.2px}</style><rect x="0" y="0" width="1200" height="430" fill="#000000"/><rect x="1" y="1" width="1198" height="428" rx="8" fill="#000000" stroke="#8c8c8c" stroke-width="1"/><text x="24" y="36" class="mono strong meta" fill="#ffffff" font-size="12">02 / OPERATING LOOP</text><text x="1176" y="36" class="mono meta" fill="#8c8c8c" font-size="10" text-anchor="end">EVIDENCE → BUILD → SHIP → LEARN</text><path d="M0 58H1200" fill="none" stroke="#8c8c8c" stroke-width="1" stroke-opacity="1"/><rect x="24" y="78" width="344" height="328" rx="8" fill="#000000" stroke="#8c8c8c" stroke-width="1"/><text x="42" y="106" class="sans strong" fill="#ffffff" font-size="17">PUBLIC BUILDING LOOP</text><text x="42" y="126" class="sans" fill="#8c8c8c" font-size="11">Six inspectable steps. One active shipping mode.</text><path d="M24 140H368" fill="none" stroke="#8c8c8c" stroke-width="1" stroke-opacity="1"/><rect x="40" y="152" width="312" height="32" rx="8" fill="#000000" stroke="#8c8c8c" stroke-width="1"/><text x="54" y="173" class="mono" fill="#8c8c8c" font-size="9">01</text><text x="84" y="173" class="mono strong" fill="#ffffff" font-size="10">MAP</text><text x="164" y="173" class="mono" fill="#f5f5f5" font-size="9">awesome-ai-native-os</text><rect x="40" y="192" width="312" height="32" rx="8" fill="#000000" stroke="#8c8c8c" stroke-width="1"/><text x="54" y="213" class="mono" fill="#8c8c8c" font-size="9">02</text><text x="84" y="213" class="mono strong" fill="#ffffff" font-size="10">ALIGN</text><text x="164" y="213" class="mono" fill="#f5f5f5" font-size="9">goal-to-do</text><rect x="40" y="232" width="312" height="32" rx="8" fill="#000000" stroke="#8c8c8c" stroke-width="1"/><text x="54" y="253" class="mono" fill="#8c8c8c" font-size="9">03</text><text x="84" y="253" class="mono strong" fill="#ffffff" font-size="10">ORCHESTRATE</text><text x="164" y="253" class="mono" fill="#f5f5f5" font-size="9">writing-loop-harness</text><rect x="40" y="272" width="312" height="32" rx="8" fill="#000000" stroke="#8c8c8c" stroke-width="1"/><text x="54" y="293" class="mono" fill="#8c8c8c" font-size="9">04</text><text x="84" y="293" class="mono strong" fill="#ffffff" font-size="10">GUARD</text><text x="164" y="293" class="mono" fill="#f5f5f5" font-size="9">valvetrade-pipeline</text><rect x="40" y="312" width="312" height="32" rx="8" fill="#ffffff" stroke="#ffffff" stroke-width="1"/><rect x="40" y="312" width="3" height="32" fill="#0382f7"/><text x="54" y="333" class="mono" fill="#000000" font-size="9">05</text><text x="84" y="333" class="mono strong" fill="#000000" font-size="10">SHIP</text><text x="164" y="333" class="mono" fill="#000000" font-size="9">LongYinMod_RisingFame</text><rect x="40" y="352" width="312" height="32" rx="8" fill="#000000" stroke="#8c8c8c" stroke-width="1"/><text x="54" y="373" class="mono" fill="#8c8c8c" font-size="9">06</text><text x="84" y="373" class="mono strong" fill="#ffffff" font-size="10">VERIFY</text><text x="164" y="373" class="mono" fill="#f5f5f5" font-size="9">taste-of-ai</text><rect x="392" y="78" width="784" height="116" rx="8" fill="#000000" stroke="#8c8c8c" stroke-width="1"/><text x="412" y="104" class="mono meta" fill="#8c8c8c" font-size="9">CURRENT DECISION FOCUS</text><text x="412" y="141" class="sans headline" fill="#ffffff" font-size="28">BUILD SMALL. SHIP REAL. LEARN IN PUBLIC.</text><text x="412" y="169" class="sans" fill="#f5f5f5" font-size="12">Keep the claim, evidence, support boundary, and next action in the same surface.</text><rect x="1014" y="96" width="138" height="32" rx="8" fill="#ffffff" stroke="#ffffff" stroke-width="1"/><text x="1083" y="117" class="mono strong" fill="#000000" font-size="9" text-anchor="middle">MODE / SHIPPING</text><rect x="392" y="210" width="784" height="196" rx="8" fill="#000000" stroke="#8c8c8c" stroke-width="1"/><rect x="393" y="211" width="782" height="29" fill="#000000"/><text x="410" y="230" class="mono meta" fill="#8c8c8c" font-size="8">ROLE</text><text x="500" y="230" class="mono meta" fill="#8c8c8c" font-size="8">SYSTEM</text><text x="780" y="230" class="mono meta" fill="#8c8c8c" font-size="8">EVIDENCE</text><text x="994" y="230" class="mono meta" fill="#8c8c8c" font-size="8">STATE</text><path d="M392 240H1176" fill="none" stroke="#8c8c8c" stroke-width="1" stroke-opacity="1"/><text x="410" y="258" class="mono strong" fill="#ffffff" font-size="9">MAP</text><text x="500" y="258" class="mono" fill="#f5f5f5" font-size="9">awesome-ai-native-os</text><text x="780" y="258" class="sans" fill="#f5f5f5" font-size="10">scene atlas</text><text x="994" y="258" class="mono" fill="#8c8c8c" font-size="8">PUBLIC ATLAS</text><path d="M392 267.5H1176" fill="none" stroke="#8c8c8c" stroke-width="1" stroke-opacity="0.75"/><text x="410" y="285.5" class="mono strong" fill="#ffffff" font-size="9">ALIGN</text><text x="500" y="285.5" class="mono" fill="#f5f5f5" font-size="9">goal-to-do</text><text x="780" y="285.5" class="sans" fill="#f5f5f5" font-size="10">installable skill</text><text x="994" y="285.5" class="mono" fill="#8c8c8c" font-size="8">INSTALLABLE</text><path d="M392 295H1176" fill="none" stroke="#8c8c8c" stroke-width="1" stroke-opacity="0.75"/><text x="410" y="313" class="mono strong" fill="#ffffff" font-size="9">ORCHESTRATE</text><text x="500" y="313" class="mono" fill="#f5f5f5" font-size="9">writing-loop-harness</text><text x="780" y="313" class="sans" fill="#f5f5f5" font-size="10">workflow contract</text><text x="994" y="313" class="mono" fill="#8c8c8c" font-size="8">PUBLIC LAB</text><path d="M392 322.5H1176" fill="none" stroke="#8c8c8c" stroke-width="1" stroke-opacity="0.75"/><text x="410" y="340.5" class="mono strong" fill="#ffffff" font-size="9">GUARD</text><text x="500" y="340.5" class="mono" fill="#f5f5f5" font-size="9">valvetrade-pipeline</text><text x="780" y="340.5" class="sans" fill="#f5f5f5" font-size="10">tested pipeline</text><text x="994" y="340.5" class="mono" fill="#8c8c8c" font-size="8">TESTED SKELETON</text><path d="M392 350H1176" fill="none" stroke="#8c8c8c" stroke-width="1" stroke-opacity="0.75"/><text x="410" y="368" class="mono strong" fill="#ffffff" font-size="9">SHIP</text><text x="500" y="368" class="mono" fill="#f5f5f5" font-size="9">LongYinMod_RisingFame</text><text x="780" y="368" class="sans" fill="#f5f5f5" font-size="10">public releases</text><text x="994" y="368" class="mono" fill="#8c8c8c" font-size="8">RELEASED</text><path d="M392 377.5H1176" fill="none" stroke="#8c8c8c" stroke-width="1" stroke-opacity="0.75"/><text x="410" y="395.5" class="mono strong" fill="#ffffff" font-size="9">VERIFY</text><text x="500" y="395.5" class="mono" fill="#f5f5f5" font-size="9">taste-of-ai</text><text x="780" y="395.5" class="sans" fill="#f5f5f5" font-size="10">live manual</text><text x="994" y="395.5" class="mono" fill="#8c8c8c" font-size="8">LIVE MANUAL</text></svg>