<?xml version="1.0" encoding="UTF-8"?>
<svg xmlns="http://www.w3.org/2000/svg" role="img" aria-labelledby="pixel-oak-title pixel-oak-desc" data-role="hero_signature" width="1200" height="800" viewBox="0 0 54 36" shape-rendering="crispEdges">
  <title id="pixel-oak-title">Pixel Oak monument</title>
  <desc id="pixel-oak-desc">A wide stepped Oak grows from a quiet ledger field.</desc>
  <rect id="hero-field" width="54" height="36" fill="#F2EFE4" data-token="canvas"/>
  <path id="open-ledger-rule" d="M4 29H17" fill="none" stroke="#A7AEA6" data-token="rule" stroke-width=".25" shape-rendering="crispEdges"/>
  <rect id="ledger-origin" x="4" y="27" width="2" height="2" fill="#3B9648" data-token="signal" shape-rendering="crispEdges"/>
  <g id="pixel-oak-monument">
    <rect x="34" y="5" width="1" height="1" fill="#347A55" data-token="forest" shape-rendering="crispEdges"/>
    <rect x="35" y="5" width="1" height="1" fill="#347A55" data-token="forest" shape-rendering="crispEdges"/>
    <rect x="36" y="5" width="1" height="1" fill="#347A55" data-token="forest" shape-rendering="crispEdges"/>
    <rect x="37" y="5" width="1" height="1" fill="#347A55" data-token="forest" shape-rendering="crispEdges"/>
    <rect x="38" y="5" width="1" height="1" fill="#347A55" data-token="forest" shape-rendering="crispEdges"/>
    <rect x="32" y="6" width="1" height="1" fill="#347A55" data-token="forest" shape-rendering="crispEdges"/>
    <rect x="33" y="6" width="1" height="1" fill="#347A55" data-token="forest" shape-rendering="crispEdges"/>
    <rect x="34" y="6" width="1" height="1" fill="#347A55" data-token="forest" shape-rendering="crispEdges"/>
    <rect x="35" y="6" width="1" height="1" fill="#347A55" data-token="forest" shape-rendering="crispEdges"/>
    <rect x="36" y="6" width="1" height="1" fill="#347A55" data-token="forest" shape-rendering="crispEdges"/>
    <rect x="37" y="6" width="1" height="1" fill="#347A55" data-token="forest" shape-rendering="crispEdges"/>
    <rect x="38" y="6" width="1" height="1" fill="#347A55" data-token="forest" shape-rendering="crispEdges"/>
    <rect x="39" y="6" width="1" height="1" fill="#347A55" data-token="forest" shape-rendering="crispEdges"/>
    <rect x="40" y="6" width="1" height="1" fill="#347A55" data-token="forest" shape-rendering="crispEdges"/>
    <rect x="25" y="7" width="1" height="1" fill="#347A55" data-token="forest" shape-rendering="crispEdges"/>
    <rect x="26" y="7" width="1" height="1" fill="#347A55" data-token="forest" shape-rendering="crispEdges"/>
    <rect x="27" y="7" width="1" height="1" fill="#347A55" data-token="forest" shape-rendering="crispEdges"/>
    <rect x="28" y="7" width="1" height="1" fill="#347A55" data-token="forest" shape-rendering="crispEdges"/>
    <rect x="29" y="7" width="1" height="1" fill="#347A55" data-token="forest" shape-rendering="crispEdges"/>
    <rect x="31" y="7" width="1" height="1" fill="#347A55" data-token="forest" shape-rendering="crispEdges"/>
    <rect x="32" y="7" width="1" height="1" fill="#347A55" data-token="forest" shape-rendering="crispEdges"/>
    <rect x="33" y="7" width="1" height="1" fill="#347A55" data-token="forest" shape-rendering="crispEdges"/>
    <rect x="34" y="7" width="1" height="1" fill="#347A55" data-token="forest" shape-rendering="crispEdges"/>
    <rect x="35" y="7" width="1" height="1" fill="#347A55" data-token="forest" shape-rendering="crispEdges"/>
    <rect x="36" y="7" width="1" height="1" fill="#347A55" data-token="forest" shape-rendering="crispEdges"/>
    <rect x="37" y="7" width="1" height="1" fill="#347A55" data-token="forest" shape-rendering="crispEdges"/>
    <rect x="38" y="7" width="1" height="1" fill="#347A55" data-token="forest" shape-rendering="crispEdges"/>
    <rect x="39" y="7" width="1" height="1" fill="#347A55" data-token="forest" shape-rendering="crispEdges"/>
    <rect x="40" y="7" width="1" height="1" fill="#347A55" data-token="forest" shape-rendering="crispEdges"/>
    <rect x="41" y="7" width="1" height="1" fill="#347A55" data-token="forest" shape-rendering="crispEdges"/>
    <rect x="44" y="7" width="1" height="1" fill="#347A55" data-token="forest" shape-rendering="crispEdges"/>
    <rect x="45" y="7" width="1" height="1" fill="#347A55" data-token="forest" shape-rendering="crispEdges"/>
    <rect x="46" y="7" width="1" height="1" fill="#347A55" data-token="forest" shape-rendering="crispEdges"/>
    <rect x="47" y="7" width="1" height="1" fill="#347A55" data-token="forest" shape-rendering="crispEdges"/>
    <rect x="23" y="8" width="1" height="1" fill="#347A55" data-token="forest" shape-rendering="crispEdges"/>
    <rect x="24" y="8" width="1" height="1" fill="#347A55" data-token="forest" shape-rendering="crispEdges"/>
    <rect x="25" y="8" width="1" height="1" fill="#347A55" data-token="forest" shape-rendering="crispEdges"/>
    <rect x="26" y="8" width="1" height="1" fill="#347A55" data-token="forest" shape-rendering="crispEdges"/>
    <rect x="27" y="8" width="1" height="1" fill="#347A55" data-token="forest" shape-rendering="crispEdges"/>
    <rect x="28" y="8" width="1" height="1" fill="#347A55" data-token="forest" shape-rendering="crispEdges"/>
    <rect x="29" y="8" width="1" height="1" fill="#347A55" data-token="forest" shape-rendering="crispEdges"/>
    <rect x="30" y="8" width="1" height="1" fill="#347A55" data-token="forest" shape-rendering="crispEdges"/>
    <rect x="31" y="8" width="1" height="1" fill="#347A55" data-token="forest" shape-rendering="crispEdges"/>
    <rect x="32" y="8" width="1" height="1" fill="#347A55" data-token="forest" shape-rendering="crispEdges"/>
    <rect x="33" y="8" width="1" height="1" fill="#347A55" data-token="forest" shape-rendering="crispEdges"/>
    <rect x="34" y="8" width="1" height="1" fill="#347A55" data-token="forest" shape-rendering="crispEdges"/>
    <rect x="35" y="8" width="1" height="1" fill="#347A55" data-token="forest" shape-rendering="crispEdges"/>
    <rect x="36" y="8" width="1" height="1" fill="#347A55" data-token="forest" shape-rendering="crispEdges"/>
    <rect x="37" y="8" width="1" height="1" fill="#347A55" data-token="forest" shape-rendering="crispEdges"/>
    <rect x="38" y="8" width="1" height="1" fill="#347A55" data-token="forest" shape-rendering="crispEdges"/>
    <rect x="39" y="8" width="1" height="1" fill="#347A55" data-token="forest" shape-rendering="crispEdges"/>
    <rect x="40" y="8" width="1" height="1" fill="#347A55" data-token="forest" shape-rendering="crispEdges"/>
    <rect x="41" y="8" width="1" height="1" fill="#347A55" data-token="forest" shape-rendering="crispEdges"/>
    <rect x="42" y="8" width="1" height="1" fill="#347A55" data-token="forest" shape-rendering="crispEdges"/>
    <rect x="43" y="8" width="1" height="1" fill="#347A55" data-token="forest" shape-rendering="crispEdges"/>
    <rect x="44" y="8" width="1" height="1" fill="#347A55" data-token="forest" shape-rendering="crispEdges"/>
    <rect x="45" y="8" width="1" height="1" fill="#347A55" data-token="forest" shape-rendering="crispEdges"/>
    <rect x="46" y="8" width="1" height="1" fill="#347A55" data-token="forest" shape-rendering="crispEdges"/>
    <rect x="47" y="8" width="1" height="1" fill="#347A55" data-token="forest" shape-rendering="crispEdges"/>
    <rect x="48" y="8" width="1" height="1" fill="#347A55" data-token="forest" shape-rendering="crispEdges"/>
    <rect x="49" y="8" width="1" height="1" fill="#347A55" data-token="forest" shape-rendering="crispEdges"/>
    <rect x="21" y="9" width="1" height="1" fill="#347A55" data-token="forest" shape-rendering="crispEdges"/>
    <rect x="22" y="9" width="1" height="1" fill="#347A55" data-token="forest" shape-rendering="crispEdges"/>
    <rect x="23" y="9" width="1" height="1" fill="#347A55" data-token="forest" shape-rendering="crispEdges"/>
    <rect x="24" y="9" width="1" height="1" fill="#347A55" data-token="forest" shape-rendering="crispEdges"/>
    <rect x="25" y="9" width="1" height="1" fill="#347A55" data-token="forest" shape-rendering="crispEdges"/>
    <rect x="26" y="9" width="1" height="1" fill="#347A55" data-token="forest" shape-rendering="crispEdges"/>
    <rect x="27" y="9" width="1" height="1" fill="#347A55" data-token="forest" shape-rendering="crispEdges"/>
    <rect x="28" y="9" width="1" height="1" fill="#347A55" data-token="forest" shape-rendering="crispEdges"/>
    <rect x="29" y="9" width="1" height="1" fill="#347A55" data-token="forest" shape-rendering="crispEdges"/>
    <rect x="30" y="9" width="1" height="1" fill="#347A55" data-token="forest" shape-rendering="crispEdges"/>
    <rect x="31" y="9" width="1" height="1" fill="#347A55" data-token="forest" shape-rendering="crispEdges"/>
    <rect x="32" y="9" width="1" height="1" fill="#347A55" data-token="forest" shape-rendering="crispEdges"/>
    <rect x="33" y="9" width="1" height="1" fill="#347A55" data-token="forest" shape-rendering="crispEdges"/>
    <rect x="34" y="9" width="1" height="1" fill="#347A55" data-token="forest" shape-rendering="crispEdges"/>
    <rect x="35" y="9" width="1" height="1" fill="#347A55" data-token="forest" shape-rendering="crispEdges"/>
    <rect x="36" y="9" width="1" height="1" fill="#347A55" data-token="forest" shape-rendering="crispEdges"/>
    <rect x="37" y="9" width="1" height="1" fill="#347A55" data-token="forest" shape-rendering="crispEdges"/>
    <rect x="38" y="9" width="1" height="1" fill="#347A55" data-token="forest" shape-rendering="crispEdges"/>
    <rect x="39" y="9" width="1" height="1" fill="#347A55" data-token="forest" shape-rendering="crispEdges"/>
    <rect x="40" y="9" width="1" height="1" fill="#347A55" data-token="forest" shape-rendering="crispEdges"/>
    <rect x="41" y="9" width="1" height="1" fill="#347A55" data-token="forest" shape-rendering="crispEdges"/>
    <rect x="42" y="9" width="1" height="1" fill="#347A55" data-token="forest" shape-rendering="crispEdges"/>
    <rect x="43" y="9" width="1" height="1" fill="#347A55" data-token="forest" shape-rendering="crispEdges"/>
    <rect x="44" y="9" width="1" height="1" fill="#347A55" data-token="forest" shape-rendering="crispEdges"/>
    <rect x="45" y="9" width="1" height="1" fill="#347A55" data-token="forest" shape-rendering="crispEdges"/>
    <rect x="46" y="9" width="1" height="1" fill="#347A55" data-token="forest" shape-rendering="crispEdges"/>
    <rect x="47" y="9" width="1" height="1" fill="#347A55" data-token="forest" shape-rendering="crispEdges"/>
    <rect x="48" y="9" width="1" height="1" fill="#347A55" data-token="forest" shape-rendering="crispEdges"/>
    <rect x="49" y="9" width="1" height="1" fill="#347A55" data-token="forest" shape-rendering="crispEdges"/>
    <rect x="50" y="9" width="1" height="1" fill="#347A55" data-token="forest" shape-rendering="crispEdges"/>
    <rect x="20" y="10" width="1" height="1" fill="#347A55" data-token="forest" shape-rendering="crispEdges"/>
    <rect x="21" y="10" width="1" height="1" fill="#347A55" data-token="forest" shape-rendering="crispEdges"/>
    <rect x="32" y="10" width="1" height="1" fill="#347A55" data-token="forest" shape-rendering="crispEdges"/>
    <rect x="33" y="10" width="1" height="1" fill="#347A55" data-token="forest" shape-rendering="crispEdges"/>
    <rect x="34" y="10" width="1" height="1" fill="#347A55" data-token="forest" shape-rendering="crispEdges"/>
    <rect x="35" y="10" width="1" height="1" fill="#347A55" data-token="forest" shape-rendering="crispEdges"/>
    <rect x="36" y="10" width="1" height="1" fill="#347A55" data-token="forest" shape-rendering="crispEdges"/>
    <rect x="37" y="10" width="1" height="1" fill="#347A55" data-token="forest" shape-rendering="crispEdges"/>
    <rect x="38" y="10" width="1" height="1" fill="#347A55" data-token="forest" shape-rendering="crispEdges"/>
    <rect x="39" y="10" width="1" height="1" fill="#347A55" data-token="forest" shape-rendering="crispEdges"/>
    <rect x="40" y="10" width="1" height="1" fill="#347A55" data-token="forest" shape-rendering="crispEdges"/>
    <rect x="41" y="10" width="1" height="1" fill="#347A55" data-token="forest" shape-rendering="crispEdges"/>
    <rect x="42" y="10" width="1" height="1" fill="#347A55" data-token="forest" shape-rendering="crispEdges"/>
    <rect x="43" y="10" width="1" height="1" fill="#347A55" data-token="forest" shape-rendering="crispEdges"/>
    <rect x="44" y="10" width="1" height="1" fill="#347A55" data-token="forest" shape-rendering="crispEdges"/>
    <rect x="45" y="10" width="1" height="1" fill="#347A55" data-token="forest" shape-rendering="crispEdges"/>
    <rect x="46" y="10" width="1" height="1" fill="#347A55" data-token="forest" shape-rendering="crispEdges"/>
    <rect x="47" y="10" width="1" height="1" fill="#347A55" data-token="forest" shape-rendering="crispEdges"/>
    <rect x="48" y="10" width="1" height="1" fill="#347A55" data-token="forest" shape-rendering="crispEdges"/>
    <rect x="49" y="10" width="1" height="1" fill="#347A55" data-token="forest" shape-rendering="crispEdges"/>
    <rect x="50" y="10" width="1" height="1" fill="#347A55" data-token="forest" shape-rendering="crispEdges"/>
    <rect x="20" y="11" width="1" height="1" fill="#347A55" data-token="forest" shape-rendering="crispEdges"/>
    <rect x="21" y="11" width="1" height="1" fill="#347A55" data-token="forest" shape-rendering="crispEdges"/>
    <rect x="32" y="11" width="1" height="1" fill="#347A55" data-token="forest" shape-rendering="crispEdges"/>
    <rect x="33" y="11" width="1" height="1" fill="#347A55" data-token="forest" shape-rendering="crispEdges"/>
    <rect x="34" y="11" width="1" height="1" fill="#347A55" data-token="forest" shape-rendering="crispEdges"/>
    <rect x="35" y="11" width="1" height="1" fill="#347A55" data-token="forest" shape-rendering="crispEdges"/>
    <rect x="36" y="11" width="1" height="1" fill="#347A55" data-token="forest" shape-rendering="crispEdges"/>
    <rect x="37" y="11" width="1" height="1" fill="#347A55" data-token="forest" shape-rendering="crispEdges"/>
    <rect x="38" y="11" width="1" height="1" fill="#347A55" data-token="forest" shape-rendering="crispEdges"/>
    <rect x="39" y="11" width="1" height="1" fill="#347A55" data-token="forest" shape-rendering="crispEdges"/>
    <rect x="40" y="11" width="1" height="1" fill="#347A55" data-token="forest" shape-rendering="crispEdges"/>
    <rect x="41" y="11" width="1" height="1" fill="#347A55" data-token="forest" shape-rendering="crispEdges"/>
    <rect x="42" y="11" width="1" height="1" fill="#347A55" data-token="forest" shape-rendering="crispEdges"/>
    <rect x="43" y="11" width="1" height="1" fill="#347A55" data-token="forest" shape-rendering="crispEdges"/>
    <rect x="44" y="11" width="1" height="1" fill="#347A55" data-token="forest" shape-rendering="crispEdges"/>
    <rect x="45" y="11" width="1" height="1" fill="#347A55" data-token="forest" shape-rendering="crispEdges"/>
    <rect x="46" y="11" width="1" height="1" fill="#347A55" data-token="forest" shape-rendering="crispEdges"/>
    <rect x="47" y="11" width="1" height="1" fill="#347A55" data-token="forest" shape-rendering="crispEdges"/>
    <rect x="48" y="11" width="1" height="1" fill="#347A55" data-token="forest" shape-rendering="crispEdges"/>
    <rect x="49" y="11" width="1" height="1" fill="#347A55" data-token="forest" shape-rendering="crispEdges"/>
    <rect x="50" y="11" width="1" height="1" fill="#347A55" data-token="forest" shape-rendering="crispEdges"/>
    <rect x="51" y="11" width="1" height="1" fill="#347A55" data-token="forest" shape-rendering="crispEdges"/>
    <rect x="21" y="12" width="1" height="1" fill="#347A55" data-token="forest" shape-rendering="crispEdges"/>
    <rect x="22" y="12" width="1" height="1" fill="#347A55" data-token="forest" shape-rendering="crispEdges"/>
    <rect x="23" y="12" width="1" height="1" fill="#347A55" data-token="forest" shape-rendering="crispEdges"/>
    <rect x="33" y="12" width="1" height="1" fill="#347A55" data-token="forest" shape-rendering="crispEdges"/>
    <rect x="34" y="12" width="1" height="1" fill="#347A55" data-token="forest" shape-rendering="crispEdges"/>
    <rect x="35" y="12" width="1" height="1" fill="#347A55" data-token="forest" shape-rendering="crispEdges"/>
    <rect x="36" y="12" width="1" height="1" fill="#347A55" data-token="forest" shape-rendering="crispEdges"/>
    <rect x="37" y="12" width="1" height="1" fill="#347A55" data-token="forest" shape-rendering="crispEdges"/>
    <rect x="38" y="12" width="1" height="1" fill="#347A55" data-token="forest" shape-rendering="crispEdges"/>
    <rect x="39" y="12" width="1" height="1" fill="#347A55" data-token="forest" shape-rendering="crispEdges"/>
    <rect x="40" y="12" width="1" height="1" fill="#347A55" data-token="forest" shape-rendering="crispEdges"/>
    <rect x="41" y="12" width="1" height="1" fill="#347A55" data-token="forest" shape-rendering="crispEdges"/>
    <rect x="42" y="12" width="1" height="1" fill="#347A55" data-token="forest" shape-rendering="crispEdges"/>
    <rect x="43" y="12" width="1" height="1" fill="#347A55" data-token="forest" shape-rendering="crispEdges"/>
    <rect x="44" y="12" width="1" height="1" fill="#347A55" data-token="forest" shape-rendering="crispEdges"/>
    <rect x="45" y="12" width="1" height="1" fill="#347A55" data-token="forest" shape-rendering="crispEdges"/>
    <rect x="46" y="12" width="1" height="1" fill="#347A55" data-token="forest" shape-rendering="crispEdges"/>
    <rect x="47" y="12" width="1" height="1" fill="#347A55" data-token="forest" shape-rendering="crispEdges"/>
    <rect x="48" y="12" width="1" height="1" fill="#347A55" data-token="forest" shape-rendering="crispEdges"/>
    <rect x="49" y="12" width="1" height="1" fill="#347A55" data-token="forest" shape-rendering="crispEdges"/>
    <rect x="50" y="12" width="1" height="1" fill="#347A55" data-token="forest" shape-rendering="crispEdges"/>
    <rect x="51" y="12" width="1" height="1" fill="#347A55" data-token="forest" shape-rendering="crispEdges"/>
    <rect x="22" y="13" width="1" height="1" fill="#347A55" data-token="forest" shape-rendering="crispEdges"/>
    <rect x="23" y="13" width="1" height="1" fill="#347A55" data-token="forest" shape-rendering="crispEdges"/>
    <rect x="24" y="13" width="1" height="1" fill="#347A55" data-token="forest" shape-rendering="crispEdges"/>
    <rect x="35" y="13" width="1" height="1" fill="#347A55" data-token="forest" shape-rendering="crispEdges"/>
    <rect x="36" y="13" width="1" height="1" fill="#347A55" data-token="forest" shape-rendering="crispEdges"/>
    <rect x="37" y="13" width="1" height="1" fill="#347A55" data-token="forest" shape-rendering="crispEdges"/>
    <rect x="38" y="13" width="1" height="1" fill="#347A55" data-token="forest" shape-rendering="crispEdges"/>
    <rect x="39" y="13" width="1" height="1" fill="#347A55" data-token="forest" shape-rendering="crispEdges"/>
    <rect x="40" y="13" width="1" height="1" fill="#347A55" data-token="forest" shape-rendering="crispEdges"/>
    <rect x="41" y="13" width="1" height="1" fill="#347A55" data-token="forest" shape-rendering="crispEdges"/>
    <rect x="42" y="13" width="1" height="1" fill="#347A55" data-token="forest" shape-rendering="crispEdges"/>
    <rect x="43" y="13" width="1" height="1" fill="#347A55" data-token="forest" shape-rendering="crispEdges"/>
    <rect x="44" y="13" width="1" height="1" fill="#347A55" data-token="forest" shape-rendering="crispEdges"/>
    <rect x="45" y="13" width="1" height="1" fill="#347A55" data-token="forest" shape-rendering="crispEdges"/>
    <rect x="46" y="13" width="1" height="1" fill="#347A55" data-token="forest" shape-rendering="crispEdges"/>
    <rect x="47" y="13" width="1" height="1" fill="#347A55" data-token="forest" shape-rendering="crispEdges"/>
    <rect x="48" y="13" width="1" height="1" fill="#347A55" data-token="forest" shape-rendering="crispEdges"/>
    <rect x="49" y="13" width="1" height="1" fill="#347A55" data-token="forest" shape-rendering="crispEdges"/>
    <rect x="50" y="13" width="1" height="1" fill="#347A55" data-token="forest" shape-rendering="crispEdges"/>
    <rect x="25" y="14" width="1" height="1" fill="#347A55" data-token="forest" shape-rendering="crispEdges"/>
    <rect x="35" y="14" width="1" height="1" fill="#347A55" data-token="forest" shape-rendering="crispEdges"/>
    <rect x="36" y="14" width="1" height="1" fill="#347A55" data-token="forest" shape-rendering="crispEdges"/>
    <rect x="37" y="14" width="1" height="1" fill="#347A55" data-token="forest" shape-rendering="crispEdges"/>
    <rect x="38" y="14" width="1" height="1" fill="#347A55" data-token="forest" shape-rendering="crispEdges"/>
    <rect x="39" y="14" width="1" height="1" fill="#347A55" data-token="forest" shape-rendering="crispEdges"/>
    <rect x="40" y="14" width="1" height="1" fill="#347A55" data-token="forest" shape-rendering="crispEdges"/>
    <rect x="41" y="14" width="1" height="1" fill="#347A55" data-token="forest" shape-rendering="crispEdges"/>
    <rect x="42" y="14" width="1" height="1" fill="#347A55" data-token="forest" shape-rendering="crispEdges"/>
    <rect x="43" y="14" width="1" height="1" fill="#347A55" data-token="forest" shape-rendering="crispEdges"/>
    <rect x="44" y="14" width="1" height="1" fill="#347A55" data-token="forest" shape-rendering="crispEdges"/>
    <rect x="45" y="14" width="1" height="1" fill="#347A55" data-token="forest" shape-rendering="crispEdges"/>
    <rect x="46" y="14" width="1" height="1" fill="#347A55" data-token="forest" shape-rendering="crispEdges"/>
    <rect x="47" y="14" width="1" height="1" fill="#347A55" data-token="forest" shape-rendering="crispEdges"/>
    <rect x="48" y="14" width="1" height="1" fill="#347A55" data-token="forest" shape-rendering="crispEdges"/>
    <rect x="24" y="15" width="1" height="1" fill="#347A55" data-token="forest" shape-rendering="crispEdges"/>
    <rect x="25" y="15" width="1" height="1" fill="#347A55" data-token="forest" shape-rendering="crispEdges"/>
    <rect x="35" y="15" width="1" height="1" fill="#347A55" data-token="forest" shape-rendering="crispEdges"/>
    <rect x="36" y="15" width="1" height="1" fill="#347A55" data-token="forest" shape-rendering="crispEdges"/>
    <rect x="37" y="15" width="1" height="1" fill="#347A55" data-token="forest" shape-rendering="crispEdges"/>
    <rect x="38" y="15" width="1" height="1" fill="#347A55" data-token="forest" shape-rendering="crispEdges"/>
    <rect x="39" y="15" width="1" height="1" fill="#347A55" data-token="forest" shape-rendering="crispEdges"/>
    <rect x="40" y="15" width="1" height="1" fill="#347A55" data-token="forest" shape-rendering="crispEdges"/>
    <rect x="41" y="15" width="1" height="1" fill="#347A55" data-token="forest" shape-rendering="crispEdges"/>
    <rect x="42" y="15" width="1" height="1" fill="#347A55" data-token="forest" shape-rendering="crispEdges"/>
    <rect x="43" y="15" width="1" height="1" fill="#347A55" data-token="forest" shape-rendering="crispEdges"/>
    <rect x="44" y="15" width="1" height="1" fill="#347A55" data-token="forest" shape-rendering="crispEdges"/>
    <rect x="45" y="15" width="1" height="1" fill="#347A55" data-token="forest" shape-rendering="crispEdges"/>
    <rect x="46" y="15" width="1" height="1" fill="#347A55" data-token="forest" shape-rendering="crispEdges"/>
    <rect x="28" y="16" width="1" height="1" fill="#347A55" data-token="forest" shape-rendering="crispEdges"/>
    <rect x="29" y="16" width="1" height="1" fill="#347A55" data-token="forest" shape-rendering="crispEdges"/>
    <rect x="30" y="16" width="1" height="1" fill="#347A55" data-token="forest" shape-rendering="crispEdges"/>
    <rect x="31" y="16" width="1" height="1" fill="#347A55" data-token="forest" shape-rendering="crispEdges"/>
    <rect x="32" y="16" width="1" height="1" fill="#347A55" data-token="forest" shape-rendering="crispEdges"/>
    <rect x="35" y="16" width="1" height="1" fill="#347A55" data-token="forest" shape-rendering="crispEdges"/>
    <rect x="36" y="16" width="1" height="1" fill="#347A55" data-token="forest" shape-rendering="crispEdges"/>
    <rect x="37" y="16" width="1" height="1" fill="#347A55" data-token="forest" shape-rendering="crispEdges"/>
    <rect x="38" y="16" width="1" height="1" fill="#347A55" data-token="forest" shape-rendering="crispEdges"/>
    <rect x="39" y="16" width="1" height="1" fill="#347A55" data-token="forest" shape-rendering="crispEdges"/>
    <rect x="40" y="16" width="1" height="1" fill="#347A55" data-token="forest" shape-rendering="crispEdges"/>
    <rect x="41" y="16" width="1" height="1" fill="#347A55" data-token="forest" shape-rendering="crispEdges"/>
    <rect x="42" y="16" width="1" height="1" fill="#347A55" data-token="forest" shape-rendering="crispEdges"/>
    <rect x="43" y="16" width="1" height="1" fill="#347A55" data-token="forest" shape-rendering="crispEdges"/>
    <rect x="44" y="16" width="1" height="1" fill="#347A55" data-token="forest" shape-rendering="crispEdges"/>
    <rect x="45" y="16" width="1" height="1" fill="#347A55" data-token="forest" shape-rendering="crispEdges"/>
    <rect x="30" y="17" width="1" height="1" fill="#347A55" data-token="forest" shape-rendering="crispEdges"/>
    <rect x="31" y="17" width="1" height="1" fill="#347A55" data-token="forest" shape-rendering="crispEdges"/>
    <rect x="32" y="17" width="1" height="1" fill="#347A55" data-token="forest" shape-rendering="crispEdges"/>
    <rect x="34" y="17" width="1" height="1" fill="#347A55" data-token="forest" shape-rendering="crispEdges"/>
    <rect x="35" y="17" width="1" height="1" fill="#347A55" data-token="forest" shape-rendering="crispEdges"/>
    <rect x="36" y="17" width="1" height="1" fill="#347A55" data-token="forest" shape-rendering="crispEdges"/>
    <rect x="37" y="17" width="1" height="1" fill="#347A55" data-token="forest" shape-rendering="crispEdges"/>
    <rect x="38" y="17" width="1" height="1" fill="#347A55" data-token="forest" shape-rendering="crispEdges"/>
    <rect x="39" y="17" width="1" height="1" fill="#347A55" data-token="forest" shape-rendering="crispEdges"/>
    <rect x="40" y="17" width="1" height="1" fill="#347A55" data-token="forest" shape-rendering="crispEdges"/>
    <rect x="41" y="17" width="1" height="1" fill="#347A55" data-token="forest" shape-rendering="crispEdges"/>
    <rect x="42" y="17" width="1" height="1" fill="#347A55" data-token="forest" shape-rendering="crispEdges"/>
    <rect x="43" y="17" width="1" height="1" fill="#347A55" data-token="forest" shape-rendering="crispEdges"/>
    <rect x="31" y="18" width="1" height="1" fill="#347A55" data-token="forest" shape-rendering="crispEdges"/>
    <rect x="32" y="18" width="1" height="1" fill="#347A55" data-token="forest" shape-rendering="crispEdges"/>
    <rect x="34" y="18" width="1" height="1" fill="#347A55" data-token="forest" shape-rendering="crispEdges"/>
    <rect x="35" y="18" width="1" height="1" fill="#347A55" data-token="forest" shape-rendering="crispEdges"/>
    <rect x="36" y="18" width="1" height="1" fill="#347A55" data-token="forest" shape-rendering="crispEdges"/>
    <rect x="37" y="18" width="1" height="1" fill="#347A55" data-token="forest" shape-rendering="crispEdges"/>
    <rect x="38" y="18" width="1" height="1" fill="#347A55" data-token="forest" shape-rendering="crispEdges"/>
    <rect x="39" y="18" width="1" height="1" fill="#347A55" data-token="forest" shape-rendering="crispEdges"/>
    <rect x="40" y="18" width="1" height="1" fill="#347A55" data-token="forest" shape-rendering="crispEdges"/>
    <rect x="41" y="18" width="1" height="1" fill="#347A55" data-token="forest" shape-rendering="crispEdges"/>
    <rect x="32" y="19" width="1" height="1" fill="#347A55" data-token="forest" shape-rendering="crispEdges"/>
    <rect x="34" y="19" width="1" height="1" fill="#347A55" data-token="forest" shape-rendering="crispEdges"/>
    <rect x="35" y="19" width="1" height="1" fill="#347A55" data-token="forest" shape-rendering="crispEdges"/>
    <rect x="36" y="19" width="1" height="1" fill="#347A55" data-token="forest" shape-rendering="crispEdges"/>
    <rect x="37" y="19" width="1" height="1" fill="#347A55" data-token="forest" shape-rendering="crispEdges"/>
    <rect x="38" y="19" width="1" height="1" fill="#347A55" data-token="forest" shape-rendering="crispEdges"/>
    <rect x="39" y="19" width="1" height="1" fill="#347A55" data-token="forest" shape-rendering="crispEdges"/>
    <rect x="40" y="19" width="1" height="1" fill="#347A55" data-token="forest" shape-rendering="crispEdges"/>
    <rect x="34" y="20" width="1" height="1" fill="#347A55" data-token="forest" shape-rendering="crispEdges"/>
    <rect x="35" y="20" width="1" height="1" fill="#347A55" data-token="forest" shape-rendering="crispEdges"/>
    <rect x="36" y="20" width="1" height="1" fill="#347A55" data-token="forest" shape-rendering="crispEdges"/>
    <rect x="37" y="20" width="1" height="1" fill="#347A55" data-token="forest" shape-rendering="crispEdges"/>
    <rect x="38" y="20" width="1" height="1" fill="#347A55" data-token="forest" shape-rendering="crispEdges"/>
    <rect x="39" y="20" width="1" height="1" fill="#347A55" data-token="forest" shape-rendering="crispEdges"/>
    <rect x="34" y="21" width="1" height="1" fill="#347A55" data-token="forest" shape-rendering="crispEdges"/>
    <rect x="35" y="21" width="1" height="1" fill="#347A55" data-token="forest" shape-rendering="crispEdges"/>
    <rect x="36" y="21" width="1" height="1" fill="#347A55" data-token="forest" shape-rendering="crispEdges"/>
    <rect x="37" y="21" width="1" height="1" fill="#347A55" data-token="forest" shape-rendering="crispEdges"/>
    <rect x="38" y="21" width="1" height="1" fill="#347A55" data-token="forest" shape-rendering="crispEdges"/>
    <rect x="39" y="21" width="1" height="1" fill="#347A55" data-token="forest" shape-rendering="crispEdges"/>
    <rect x="34" y="22" width="1" height="1" fill="#347A55" data-token="forest" shape-rendering="crispEdges"/>
    <rect x="35" y="22" width="1" height="1" fill="#347A55" data-token="forest" shape-rendering="crispEdges"/>
    <rect x="36" y="22" width="1" height="1" fill="#347A55" data-token="forest" shape-rendering="crispEdges"/>
    <rect x="37" y="22" width="1" height="1" fill="#347A55" data-token="forest" shape-rendering="crispEdges"/>
    <rect x="38" y="22" width="1" height="1" fill="#347A55" data-token="forest" shape-rendering="crispEdges"/>
    <rect x="34" y="23" width="1" height="1" fill="#347A55" data-token="forest" shape-rendering="crispEdges"/>
    <rect x="35" y="23" width="1" height="1" fill="#347A55" data-token="forest" shape-rendering="crispEdges"/>
    <rect x="36" y="23" width="1" height="1" fill="#347A55" data-token="forest" shape-rendering="crispEdges"/>
    <rect x="37" y="23" width="1" height="1" fill="#347A55" data-token="forest" shape-rendering="crispEdges"/>
    <rect x="38" y="23" width="1" height="1" fill="#347A55" data-token="forest" shape-rendering="crispEdges"/>
    <rect x="33" y="24" width="1" height="1" fill="#347A55" data-token="forest" shape-rendering="crispEdges"/>
    <rect x="34" y="24" width="1" height="1" fill="#347A55" data-token="forest" shape-rendering="crispEdges"/>
    <rect x="35" y="24" width="1" height="1" fill="#347A55" data-token="forest" shape-rendering="crispEdges"/>
    <rect x="36" y="24" width="1" height="1" fill="#347A55" data-token="forest" shape-rendering="crispEdges"/>
    <rect x="37" y="24" width="1" height="1" fill="#347A55" data-token="forest" shape-rendering="crispEdges"/>
    <rect x="38" y="24" width="1" height="1" fill="#347A55" data-token="forest" shape-rendering="crispEdges"/>
    <rect x="39" y="24" width="1" height="1" fill="#347A55" data-token="forest" shape-rendering="crispEdges"/>
    <rect x="33" y="25" width="1" height="1" fill="#347A55" data-token="forest" shape-rendering="crispEdges"/>
    <rect x="34" y="25" width="1" height="1" fill="#347A55" data-token="forest" shape-rendering="crispEdges"/>
    <rect x="35" y="25" width="1" height="1" fill="#347A55" data-token="forest" shape-rendering="crispEdges"/>
    <rect x="36" y="25" width="1" height="1" fill="#347A55" data-token="forest" shape-rendering="crispEdges"/>
    <rect x="37" y="25" width="1" height="1" fill="#347A55" data-token="forest" shape-rendering="crispEdges"/>
    <rect x="38" y="25" width="1" height="1" fill="#347A55" data-token="forest" shape-rendering="crispEdges"/>
    <rect x="39" y="25" width="1" height="1" fill="#347A55" data-token="forest" shape-rendering="crispEdges"/>
    <rect x="40" y="25" width="1" height="1" fill="#347A55" data-token="forest" shape-rendering="crispEdges"/>
    <rect x="28" y="26" width="1" height="1" fill="#347A55" data-token="forest" shape-rendering="crispEdges"/>
    <rect x="34" y="26" width="1" height="1" fill="#347A55" data-token="forest" shape-rendering="crispEdges"/>
    <rect x="35" y="26" width="1" height="1" fill="#347A55" data-token="forest" shape-rendering="crispEdges"/>
    <rect x="36" y="26" width="1" height="1" fill="#347A55" data-token="forest" shape-rendering="crispEdges"/>
    <rect x="37" y="26" width="1" height="1" fill="#347A55" data-token="forest" shape-rendering="crispEdges"/>
    <rect x="38" y="26" width="1" height="1" fill="#347A55" data-token="forest" shape-rendering="crispEdges"/>
    <rect x="40" y="26" width="1" height="1" fill="#347A55" data-token="forest" shape-rendering="crispEdges"/>
    <rect x="41" y="26" width="1" height="1" fill="#347A55" data-token="forest" shape-rendering="crispEdges"/>
    <rect x="42" y="26" width="1" height="1" fill="#347A55" data-token="forest" shape-rendering="crispEdges"/>
    <rect x="43" y="26" width="1" height="1" fill="#347A55" data-token="forest" shape-rendering="crispEdges"/>
    <rect x="25" y="27" width="1" height="1" fill="#347A55" data-token="forest" shape-rendering="crispEdges"/>
    <rect x="26" y="27" width="1" height="1" fill="#347A55" data-token="forest" shape-rendering="crispEdges"/>
    <rect x="34" y="27" width="1" height="1" fill="#347A55" data-token="forest" shape-rendering="crispEdges"/>
    <rect x="35" y="27" width="1" height="1" fill="#347A55" data-token="forest" shape-rendering="crispEdges"/>
    <rect x="36" y="27" width="1" height="1" fill="#347A55" data-token="forest" shape-rendering="crispEdges"/>
    <rect x="37" y="27" width="1" height="1" fill="#347A55" data-token="forest" shape-rendering="crispEdges"/>
    <rect x="38" y="27" width="1" height="1" fill="#347A55" data-token="forest" shape-rendering="crispEdges"/>
    <rect x="41" y="27" width="1" height="1" fill="#347A55" data-token="forest" shape-rendering="crispEdges"/>
    <rect x="42" y="27" width="1" height="1" fill="#347A55" data-token="forest" shape-rendering="crispEdges"/>
    <rect x="43" y="27" width="1" height="1" fill="#347A55" data-token="forest" shape-rendering="crispEdges"/>
    <rect x="44" y="27" width="1" height="1" fill="#347A55" data-token="forest" shape-rendering="crispEdges"/>
    <rect x="45" y="27" width="1" height="1" fill="#347A55" data-token="forest" shape-rendering="crispEdges"/>
    <rect x="46" y="27" width="1" height="1" fill="#347A55" data-token="forest" shape-rendering="crispEdges"/>
    <rect x="23" y="28" width="1" height="1" fill="#347A55" data-token="forest" shape-rendering="crispEdges"/>
    <rect x="24" y="28" width="1" height="1" fill="#347A55" data-token="forest" shape-rendering="crispEdges"/>
    <rect x="25" y="28" width="1" height="1" fill="#347A55" data-token="forest" shape-rendering="crispEdges"/>
    <rect x="26" y="28" width="1" height="1" fill="#347A55" data-token="forest" shape-rendering="crispEdges"/>
    <rect x="27" y="28" width="1" height="1" fill="#347A55" data-token="forest" shape-rendering="crispEdges"/>
    <rect x="34" y="28" width="1" height="1" fill="#347A55" data-token="forest" shape-rendering="crispEdges"/>
    <rect x="35" y="28" width="1" height="1" fill="#347A55" data-token="forest" shape-rendering="crispEdges"/>
    <rect x="36" y="28" width="1" height="1" fill="#347A55" data-token="forest" shape-rendering="crispEdges"/>
    <rect x="37" y="28" width="1" height="1" fill="#347A55" data-token="forest" shape-rendering="crispEdges"/>
    <rect x="44" y="28" width="1" height="1" fill="#347A55" data-token="forest" shape-rendering="crispEdges"/>
    <rect x="45" y="28" width="1" height="1" fill="#347A55" data-token="forest" shape-rendering="crispEdges"/>
    <rect x="46" y="28" width="1" height="1" fill="#347A55" data-token="forest" shape-rendering="crispEdges"/>
    <rect x="47" y="28" width="1" height="1" fill="#347A55" data-token="forest" shape-rendering="crispEdges"/>
    <rect x="48" y="28" width="1" height="1" fill="#347A55" data-token="forest" shape-rendering="crispEdges"/>
    <rect x="22" y="10" width="1" height="1" fill="#5C8E70" data-token="structure" shape-rendering="crispEdges"/>
    <rect x="23" y="10" width="1" height="1" fill="#5C8E70" data-token="structure" shape-rendering="crispEdges"/>
    <rect x="24" y="10" width="1" height="1" fill="#5C8E70" data-token="structure" shape-rendering="crispEdges"/>
    <rect x="25" y="10" width="1" height="1" fill="#5C8E70" data-token="structure" shape-rendering="crispEdges"/>
    <rect x="26" y="10" width="1" height="1" fill="#5C8E70" data-token="structure" shape-rendering="crispEdges"/>
    <rect x="27" y="10" width="1" height="1" fill="#5C8E70" data-token="structure" shape-rendering="crispEdges"/>
    <rect x="28" y="10" width="1" height="1" fill="#5C8E70" data-token="structure" shape-rendering="crispEdges"/>
    <rect x="29" y="10" width="1" height="1" fill="#5C8E70" data-token="structure" shape-rendering="crispEdges"/>
    <rect x="30" y="10" width="1" height="1" fill="#5C8E70" data-token="structure" shape-rendering="crispEdges"/>
    <rect x="31" y="10" width="1" height="1" fill="#5C8E70" data-token="structure" shape-rendering="crispEdges"/>
    <rect x="22" y="11" width="1" height="1" fill="#5C8E70" data-token="structure" shape-rendering="crispEdges"/>
    <rect x="23" y="11" width="1" height="1" fill="#5C8E70" data-token="structure" shape-rendering="crispEdges"/>
    <rect x="24" y="11" width="1" height="1" fill="#5C8E70" data-token="structure" shape-rendering="crispEdges"/>
    <rect x="25" y="11" width="1" height="1" fill="#5C8E70" data-token="structure" shape-rendering="crispEdges"/>
    <rect x="26" y="11" width="1" height="1" fill="#5C8E70" data-token="structure" shape-rendering="crispEdges"/>
    <rect x="27" y="11" width="1" height="1" fill="#5C8E70" data-token="structure" shape-rendering="crispEdges"/>
    <rect x="28" y="11" width="1" height="1" fill="#5C8E70" data-token="structure" shape-rendering="crispEdges"/>
    <rect x="29" y="11" width="1" height="1" fill="#5C8E70" data-token="structure" shape-rendering="crispEdges"/>
    <rect x="30" y="11" width="1" height="1" fill="#5C8E70" data-token="structure" shape-rendering="crispEdges"/>
    <rect x="31" y="11" width="1" height="1" fill="#5C8E70" data-token="structure" shape-rendering="crispEdges"/>
    <rect x="24" y="12" width="1" height="1" fill="#5C8E70" data-token="structure" shape-rendering="crispEdges"/>
    <rect x="25" y="12" width="1" height="1" fill="#5C8E70" data-token="structure" shape-rendering="crispEdges"/>
    <rect x="26" y="12" width="1" height="1" fill="#5C8E70" data-token="structure" shape-rendering="crispEdges"/>
    <rect x="27" y="12" width="1" height="1" fill="#5C8E70" data-token="structure" shape-rendering="crispEdges"/>
    <rect x="28" y="12" width="1" height="1" fill="#5C8E70" data-token="structure" shape-rendering="crispEdges"/>
    <rect x="29" y="12" width="1" height="1" fill="#5C8E70" data-token="structure" shape-rendering="crispEdges"/>
    <rect x="30" y="12" width="1" height="1" fill="#5C8E70" data-token="structure" shape-rendering="crispEdges"/>
    <rect x="31" y="12" width="1" height="1" fill="#5C8E70" data-token="structure" shape-rendering="crispEdges"/>
    <rect x="32" y="12" width="1" height="1" fill="#5C8E70" data-token="structure" shape-rendering="crispEdges"/>
    <rect x="25" y="13" width="1" height="1" fill="#5C8E70" data-token="structure" shape-rendering="crispEdges"/>
    <rect x="26" y="13" width="1" height="1" fill="#5C8E70" data-token="structure" shape-rendering="crispEdges"/>
    <rect x="27" y="13" width="1" height="1" fill="#5C8E70" data-token="structure" shape-rendering="crispEdges"/>
    <rect x="28" y="13" width="1" height="1" fill="#5C8E70" data-token="structure" shape-rendering="crispEdges"/>
    <rect x="29" y="13" width="1" height="1" fill="#5C8E70" data-token="structure" shape-rendering="crispEdges"/>
    <rect x="30" y="13" width="1" height="1" fill="#5C8E70" data-token="structure" shape-rendering="crispEdges"/>
    <rect x="31" y="13" width="1" height="1" fill="#5C8E70" data-token="structure" shape-rendering="crispEdges"/>
    <rect x="32" y="13" width="1" height="1" fill="#5C8E70" data-token="structure" shape-rendering="crispEdges"/>
    <rect x="33" y="13" width="1" height="1" fill="#5C8E70" data-token="structure" shape-rendering="crispEdges"/>
    <rect x="34" y="13" width="1" height="1" fill="#5C8E70" data-token="structure" shape-rendering="crispEdges"/>
    <rect x="26" y="14" width="1" height="1" fill="#5C8E70" data-token="structure" shape-rendering="crispEdges"/>
    <rect x="27" y="14" width="1" height="1" fill="#5C8E70" data-token="structure" shape-rendering="crispEdges"/>
    <rect x="28" y="14" width="1" height="1" fill="#5C8E70" data-token="structure" shape-rendering="crispEdges"/>
    <rect x="29" y="14" width="1" height="1" fill="#5C8E70" data-token="structure" shape-rendering="crispEdges"/>
    <rect x="30" y="14" width="1" height="1" fill="#5C8E70" data-token="structure" shape-rendering="crispEdges"/>
    <rect x="31" y="14" width="1" height="1" fill="#5C8E70" data-token="structure" shape-rendering="crispEdges"/>
    <rect x="32" y="14" width="1" height="1" fill="#5C8E70" data-token="structure" shape-rendering="crispEdges"/>
    <rect x="33" y="14" width="1" height="1" fill="#5C8E70" data-token="structure" shape-rendering="crispEdges"/>
    <rect x="34" y="14" width="1" height="1" fill="#5C8E70" data-token="structure" shape-rendering="crispEdges"/>
    <rect x="26" y="15" width="1" height="1" fill="#5C8E70" data-token="structure" shape-rendering="crispEdges"/>
    <rect x="27" y="15" width="1" height="1" fill="#5C8E70" data-token="structure" shape-rendering="crispEdges"/>
    <rect x="28" y="15" width="1" height="1" fill="#5C8E70" data-token="structure" shape-rendering="crispEdges"/>
    <rect x="29" y="15" width="1" height="1" fill="#5C8E70" data-token="structure" shape-rendering="crispEdges"/>
    <rect x="30" y="15" width="1" height="1" fill="#5C8E70" data-token="structure" shape-rendering="crispEdges"/>
    <rect x="31" y="15" width="1" height="1" fill="#5C8E70" data-token="structure" shape-rendering="crispEdges"/>
    <rect x="32" y="15" width="1" height="1" fill="#5C8E70" data-token="structure" shape-rendering="crispEdges"/>
    <rect x="33" y="15" width="1" height="1" fill="#5C8E70" data-token="structure" shape-rendering="crispEdges"/>
    <rect x="34" y="15" width="1" height="1" fill="#5C8E70" data-token="structure" shape-rendering="crispEdges"/>
    <rect x="33" y="16" width="1" height="1" fill="#5C8E70" data-token="structure" shape-rendering="crispEdges"/>
    <rect x="34" y="16" width="1" height="1" fill="#5C8E70" data-token="structure" shape-rendering="crispEdges"/>
    <rect x="33" y="17" width="1" height="1" fill="#5C8E70" data-token="structure" shape-rendering="crispEdges"/>
    <rect x="33" y="18" width="1" height="1" fill="#5C8E70" data-token="structure" shape-rendering="crispEdges"/>
    <rect x="33" y="19" width="1" height="1" fill="#5C8E70" data-token="structure" shape-rendering="crispEdges"/>
    <rect x="33" y="20" width="1" height="1" fill="#5C8E70" data-token="structure" shape-rendering="crispEdges"/>
    <rect x="33" y="21" width="1" height="1" fill="#5C8E70" data-token="structure" shape-rendering="crispEdges"/>
    <rect x="33" y="22" width="1" height="1" fill="#5C8E70" data-token="structure" shape-rendering="crispEdges"/>
    <rect x="32" y="23" width="1" height="1" fill="#5C8E70" data-token="structure" shape-rendering="crispEdges"/>
    <rect x="33" y="23" width="1" height="1" fill="#5C8E70" data-token="structure" shape-rendering="crispEdges"/>
    <rect x="32" y="24" width="1" height="1" fill="#5C8E70" data-token="structure" shape-rendering="crispEdges"/>
    <rect x="31" y="25" width="1" height="1" fill="#5C8E70" data-token="structure" shape-rendering="crispEdges"/>
    <rect x="32" y="25" width="1" height="1" fill="#5C8E70" data-token="structure" shape-rendering="crispEdges"/>
    <rect x="29" y="26" width="1" height="1" fill="#5C8E70" data-token="structure" shape-rendering="crispEdges"/>
    <rect x="30" y="26" width="1" height="1" fill="#5C8E70" data-token="structure" shape-rendering="crispEdges"/>
    <rect x="31" y="26" width="1" height="1" fill="#5C8E70" data-token="structure" shape-rendering="crispEdges"/>
    <rect x="32" y="26" width="1" height="1" fill="#5C8E70" data-token="structure" shape-rendering="crispEdges"/>
    <rect x="27" y="27" width="1" height="1" fill="#5C8E70" data-token="structure" shape-rendering="crispEdges"/>
    <rect x="28" y="27" width="1" height="1" fill="#5C8E70" data-token="structure" shape-rendering="crispEdges"/>
    <rect x="29" y="27" width="1" height="1" fill="#5C8E70" data-token="structure" shape-rendering="crispEdges"/>
    <rect x="30" y="27" width="1" height="1" fill="#5C8E70" data-token="structure" shape-rendering="crispEdges"/>
  </g>
</svg>
