<svg xmlns="http://www.w3.org/2000/svg" width="1200" height="360" viewBox="0 0 1200 360" role="img" aria-labelledby="title desc"><title id="title">Cooper Oak evidence console</title><desc id="desc">Identity, current operating state, and a six-step public building loop.</desc><style>.sans{font-family:system-ui,-apple-system,"Segoe UI","Helvetica Neue",Arial,sans-serif}.mono{font-family:ui-monospace,"SFMono-Regular",Menlo,Consolas,monospace}.headline{font-weight:650;letter-spacing:-1.4px}.strong{font-weight:650}.meta{letter-spacing:1.2px}</style><rect x="0" y="0" width="1200" height="360" fill="#000000"/><rect x="1" y="1" width="1198" height="358" rx="8" fill="#000000" stroke="#8c8c8c" stroke-width="1"/><path d="M0 64H1200" fill="none" stroke="#8c8c8c" stroke-width="1" stroke-opacity="1"/><rect x="24" y="14" width="40" height="40" rx="8" fill="#ffffff" stroke="#ffffff" stroke-width="1"/><text x="44" y="39.6" class="mono strong" fill="#000000" font-size="14" text-anchor="middle" letter-spacing="0.5">CO</text><text x="80" y="31" class="sans strong" fill="#ffffff" font-size="15">COOPER OAK</text><text x="80" y="50" class="mono meta" fill="#8c8c8c" font-size="10">BUILDER PROFILE / 2026</text><rect x="1000" y="16" width="176" height="34" rx="8" fill="#000000" stroke="#f5f5f5" stroke-width="1"/><rect x="1000" y="16" width="3" height="34" fill="#0382f7"/><text x="1088" y="38" class="mono strong" fill="#ffffff" font-size="10" text-anchor="middle" letter-spacing="0.8">BUILDING IN PUBLIC</text><text x="32" y="102" class="mono meta" fill="#8c8c8c" font-size="11">01 / CURRENT MISSION</text><text x="32" y="156" class="sans headline" fill="#ffffff" font-size="44">TURN IDEAS INTO</text><text x="32" y="205" class="sans headline" fill="#ffffff" font-size="44">OPERABLE SYSTEMS</text><text x="34" y="238" class="sans" fill="#f5f5f5" font-size="15">把研究、代码与证据推进成可复核、可交付的系统。</text><text x="34" y="263" class="sans" fill="#8c8c8c" font-size="12">Building game mods, AI tools, and weird useful projects in public.</text><rect x="760" y="82" width="416" height="184" rx="8" fill="#000000" stroke="#8c8c8c" stroke-width="1"/><text x="776" y="108" class="mono meta" fill="#8c8c8c" font-size="10">OPERATING STATE / FACTS</text><path d="M760 120H1176" fill="none" stroke="#8c8c8c" stroke-width="1" stroke-opacity="1"/><rect x="776" y="132" width="184" height="49" rx="8" fill="#000000" stroke="#8c8c8c" stroke-width="1"/><text x="788" y="149" class="mono meta" fill="#8c8c8c" font-size="8">STARTED</text><text x="788" y="168" class="sans strong" fill="#ffffff" font-size="12">2026</text><rect x="972" y="132" width="184" height="49" rx="8" fill="#000000" stroke="#8c8c8c" stroke-width="1"/><text x="984" y="149" class="mono meta" fill="#8c8c8c" font-size="8">GOAL</text><text x="984" y="168" class="sans strong" fill="#ffffff" font-size="12">100 PROJECTS</text><rect x="776" y="193" width="184" height="49" rx="8" fill="#000000" stroke="#8c8c8c" stroke-width="1"/><text x="788" y="210" class="mono meta" fill="#8c8c8c" font-size="8">MODE</text><text x="788" y="229" class="sans strong" fill="#ffffff" font-size="12">BUILDING IN PUBLIC</text><rect x="972" y="193" width="184" height="49" rx="8" fill="#000000" stroke="#8c8c8c" stroke-width="1"/><text x="984" y="210" class="mono meta" fill="#8c8c8c" font-size="8">FOCUS</text><text x="984" y="229" class="sans strong" fill="#ffffff" font-size="12">AI-NATIVE SYSTEMS</text><rect x="24" y="286" width="184" height="50" rx="8" fill="#000000" stroke="#8c8c8c" stroke-width="1"/><text x="36" y="304" class="mono meta" fill="#8c8c8c" font-size="8">01 / MAP</text><text x="36" y="324" class="mono strong" fill="#ffffff" font-size="10">awesome-ai-native-os</text><rect x="216" y="286" width="184" height="50" rx="8" fill="#000000" stroke="#8c8c8c" stroke-width="1"/><text x="228" y="304" class="mono meta" fill="#8c8c8c" font-size="8">02 / ALIGN</text><text x="228" y="324" class="mono strong" fill="#ffffff" font-size="10">goal-to-do</text><rect x="408" y="286" width="184" height="50" rx="8" fill="#000000" stroke="#8c8c8c" stroke-width="1"/><text x="420" y="304" class="mono meta" fill="#8c8c8c" font-size="8">03 / ORCHESTRATE</text><text x="420" y="324" class="mono strong" fill="#ffffff" font-size="10">writing-loop-harness</text><rect x="600" y="286" width="184" height="50" rx="8" fill="#000000" stroke="#8c8c8c" stroke-width="1"/><text x="612" y="304" class="mono meta" fill="#8c8c8c" font-size="8">04 / GUARD</text><text x="612" y="324" class="mono strong" fill="#ffffff" font-size="10">valvetrade-pipeline</text><rect x="792" y="286" width="184" height="50" rx="8" fill="#ffffff" stroke="#ffffff" stroke-width="1"/><text x="804" y="304" class="mono meta" fill="#000000" font-size="8">05 / SHIP</text><text x="804" y="324" class="mono strong" fill="#000000" font-size="10">LongYinMod_RisingFame</text><rect x="984" y="286" width="184" height="50" rx="8" fill="#000000" stroke="#8c8c8c" stroke-width="1"/><text x="996" y="304" class="mono meta" fill="#8c8c8c" font-size="8">06 / VERIFY</text><text x="996" y="324" class="mono strong" fill="#ffffff" font-size="10">taste-of-ai</text></svg>